<svg width="199" height="123" viewBox="0 0 199 123" fill="none" xmlns="http://www.w3.org/2000/svg">
<g clip-path="url(#clip0_618_1589)">
<path d="M212.507 18.6989C199.27 23.9971 195.399 36.4713 195.289 39.9911C195.289 39.9911 203.038 40.5933 207.63 27.396C210.019 20.5316 212.507 18.6989 212.507 18.6989Z" fill="white"/>
<mask id="mask0_618_1589" style="mask-type:luminance" maskUnits="userSpaceOnUse" x="195" y="18" width="18" height="22">
<path d="M212.505 18.6989C199.268 23.9971 195.397 36.4714 195.287 39.9912C195.287 39.9912 203.036 40.5933 207.628 27.396C210.017 20.5316 212.505 18.6989 212.505 18.6989Z" fill="white"/>
</mask>
<g mask="url(#mask0_618_1589)">
<path d="M216.951 17.3654L212.505 18.6989C212.505 18.6989 198.981 31.4917 197.104 37.27C195.226 43.0482 209.881 43.841 209.881 43.841L218.493 22.9977L218.108 21.227" fill="#EFF1F7"/>
</g>
<path d="M212.507 18.6989C199.27 23.9971 195.399 36.4713 195.289 39.9911C195.289 39.9911 203.038 40.5933 207.63 27.396C210.019 20.5316 212.507 18.6989 212.507 18.6989Z" stroke="#020000" stroke-width="0.367612" stroke-linecap="round" stroke-linejoin="round"/>
<path d="M189.508 24.4567C185.098 32.6206 174.435 27.5654 167.938 44.6843C167.938 44.6843 184.102 51.1048 189.508 24.4567Z" fill="white" stroke="#020000" stroke-width="0.367612" stroke-linecap="round" stroke-linejoin="round"/>
<path d="M169.954 1.6452C163.535 6.37079 161.514 15.8451 161.514 15.8451L160.77 13.0066C160.77 13.0066 160.123 16.8286 160.786 19.2738L159.516 17.6505C159.516 17.6505 158.513 22.3247 160.235 24.9613C160.235 24.9613 158.649 24.3868 158.488 23.6003C158.488 23.6003 158.57 28.7885 160.573 31.2033C160.573 31.2033 159.73 31.869 158.982 31.2036C158.982 31.2036 163.025 46.3944 168.025 46.1011C173.024 45.8077 173.995 28.5991 173.995 28.5991C173.995 28.5991 172.585 30.2834 171.993 30.9793C171.993 30.9793 171.705 22.1861 172.146 21.1524L170.274 22.9729C170.274 22.9729 170.585 17.7039 172.11 15.586C172.11 15.586 170.449 15.6418 169.616 16.7562C169.616 16.7562 167.532 12.3499 169.954 1.6452Z" fill="white"/>
<mask id="mask1_618_1589" style="mask-type:luminance" maskUnits="userSpaceOnUse" x="158" y="1" width="16" height="46">
<path d="M169.95 1.64516C163.531 6.37075 161.51 15.8451 161.51 15.8451L160.766 13.0066C160.766 13.0066 160.12 16.8285 160.783 19.2738L159.512 17.6505C159.512 17.6505 158.509 22.3246 160.231 24.9613C160.231 24.9613 158.645 24.3868 158.484 23.6003C158.484 23.6003 158.566 28.7885 160.569 31.2032C160.569 31.2032 159.726 31.8689 158.978 31.2035C158.978 31.2035 163.021 46.3944 168.021 46.101C173.021 45.8076 173.991 28.5991 173.991 28.5991C173.991 28.5991 172.581 30.2833 171.989 30.9793C171.989 30.9793 171.701 22.186 172.143 21.1524L170.271 22.9729C170.271 22.9729 170.581 17.7039 172.106 15.586C172.106 15.586 170.445 15.6417 169.612 16.7562C169.612 16.7562 167.528 12.3498 169.95 1.64516Z" fill="white"/>
</mask>
<g mask="url(#mask1_618_1589)">
<path d="M174.916 12.5827C158.802 29.3608 165.651 43.841 165.651 43.841L183.68 35.6966L173.994 7.62642" fill="#EFF1F7"/>
</g>
<path d="M169.954 1.6452C163.535 6.37079 161.514 15.8451 161.514 15.8451L160.77 13.0066C160.77 13.0066 160.123 16.8286 160.786 19.2738L159.516 17.6505C159.516 17.6505 158.513 22.3247 160.235 24.9613C160.235 24.9613 158.649 24.3868 158.488 23.6003C158.488 23.6003 158.57 28.7885 160.573 31.2033C160.573 31.2033 159.73 31.869 158.982 31.2036C158.982 31.2036 163.025 46.3944 168.025 46.1011C173.024 45.8077 173.995 28.5991 173.995 28.5991C173.995 28.5991 172.585 30.2834 171.993 30.9793C171.993 30.9793 171.705 22.1861 172.146 21.1524L170.274 22.9729C170.274 22.9729 170.585 17.7039 172.11 15.586C172.11 15.586 170.449 15.6418 169.616 16.7562C169.616 16.7562 167.532 12.3499 169.954 1.6452Z" stroke="#020000" stroke-width="0.367612" stroke-linecap="round" stroke-linejoin="round"/>
<path d="M178.69 47.3585C178.505 47.613 178.303 47.8541 178.084 48.0799C177.86 48.2993 177.624 48.5067 177.378 48.7013C177.136 48.9002 176.871 49.073 176.618 49.2597C176.359 49.4388 176.084 49.5965 175.816 49.7645C174.718 50.3759 173.45 50.8326 172.131 50.7136C171.478 50.648 170.847 50.44 170.284 50.1042C169.732 49.7712 169.238 49.35 168.823 48.8572C168.414 48.3733 168.061 47.8451 167.769 47.2825C167.474 46.7257 167.234 46.141 167.053 45.537L167.357 45.4452C167.771 46.5729 168.377 47.6609 169.176 48.5425C169.965 49.4282 171.024 50.0777 172.181 50.1502C173.336 50.244 174.49 49.8319 175.522 49.2457C175.774 49.0835 176.033 48.9335 176.278 48.7606C176.519 48.5792 176.77 48.4137 177.002 48.2199C177.232 48.0238 177.476 47.8456 177.715 47.6575C177.954 47.4635 178.206 47.2868 178.47 47.1287L178.69 47.3585Z" fill="white" stroke="#020000" stroke-width="0.367612" stroke-linecap="round" stroke-linejoin="round"/>
<path d="M141.117 38.8123C148.96 38.8123 155.318 32.3231 155.318 24.3183C155.318 16.3135 148.96 9.82439 141.117 9.82439C133.274 9.82439 126.916 16.3135 126.916 24.3183C126.916 32.3231 133.274 38.8123 141.117 38.8123Z" fill="#1A1919" stroke="#020000" stroke-width="0.367612" stroke-linecap="round" stroke-linejoin="round"/>
<path d="M141.116 36.0539C147.466 36.0539 152.614 30.7997 152.614 24.3183C152.614 17.8369 147.466 12.5827 141.116 12.5827C134.765 12.5827 129.617 17.8369 129.617 24.3183C129.617 30.7997 134.765 36.0539 141.116 36.0539Z" fill="white" stroke="#020000" stroke-width="0.367612" stroke-linecap="round" stroke-linejoin="round"/>
<path d="M141.201 37.9879C149.044 37.9879 155.402 31.4987 155.402 23.494C155.402 15.4892 149.044 9 141.201 9C133.358 9 127 15.4892 127 23.494C127 31.4987 133.358 37.9879 141.201 37.9879Z" fill="white" stroke="#020000" stroke-width="0.367612" stroke-linecap="round" stroke-linejoin="round"/>
<path d="M141.2 35.2296C147.55 35.2296 152.698 29.9754 152.698 23.494C152.698 17.0126 147.55 11.7584 141.2 11.7584C134.849 11.7584 129.701 17.0126 129.701 23.494C129.701 29.9754 134.849 35.2296 141.2 35.2296Z" fill="#1A1919" stroke="#020000" stroke-width="0.367612" stroke-linecap="round" stroke-linejoin="round"/>
<g clip-path="url(#clip1_618_1589)">
<path d="M146.606 17.5696V15.4945H142.128H138.06H137.541V17.5696H138.06H142.128C142.783 17.5696 143.384 18.0064 143.684 18.6344H137.541V20.7094H143.684C143.384 21.3374 142.783 21.7743 142.128 21.7743H138.06V23.8493H138.497L143.439 28.3271L144.831 26.7981L141.582 23.8493H142.128C143.93 23.8493 145.432 22.5115 145.869 20.7094H146.578V18.6344H145.896C145.814 18.2521 145.677 17.8972 145.486 17.5696H146.606Z" fill="white"/>
</g>
<path d="M184.201 37.9879C192.044 37.9879 198.402 31.4987 198.402 23.494C198.402 15.4892 192.044 9 184.201 9C176.358 9 170 15.4892 170 23.494C170 31.4987 176.358 37.9879 184.201 37.9879Z" fill="white" stroke="#020000" stroke-width="0.367612" stroke-linecap="round" stroke-linejoin="round"/>
<path d="M184.2 35.2296C190.55 35.2296 195.698 29.9754 195.698 23.494C195.698 17.0126 190.55 11.7584 184.2 11.7584C177.849 11.7584 172.701 17.0126 172.701 23.494C172.701 29.9754 177.849 35.2296 184.2 35.2296Z" fill="#1A1919" stroke="#020000" stroke-width="0.367612" stroke-linecap="round" stroke-linejoin="round"/>
<g clip-path="url(#clip2_618_1589)">
<path d="M189.606 17.5696V15.4945H185.128H181.06H180.541V17.5696H181.06H185.128C185.783 17.5696 186.384 18.0064 186.684 18.6344H180.541V20.7094H186.684C186.384 21.3374 185.783 21.7743 185.128 21.7743H181.06V23.8493H181.497L186.439 28.3271L187.831 26.7981L184.582 23.8493H185.128C186.93 23.8493 188.432 22.5115 188.869 20.7094H189.578V18.6344H188.896C188.814 18.2521 188.677 17.8972 188.486 17.5696H189.606Z" fill="white"/>
</g>
<path d="M197.682 41.6701C201.92 41.6701 205.355 38.1642 205.355 33.8395C205.355 29.5148 201.92 26.009 197.682 26.009C193.445 26.009 190.01 29.5148 190.01 33.8395C190.01 38.1642 193.445 41.6701 197.682 41.6701Z" fill="white" stroke="#020000" stroke-width="0.367612" stroke-linecap="round" stroke-linejoin="round"/>
<path d="M197.685 40.1799C201.116 40.1799 203.897 37.3412 203.897 33.8395C203.897 30.3379 201.116 27.4992 197.685 27.4992C194.254 27.4992 191.473 30.3379 191.473 33.8395C191.473 37.3412 194.254 40.1799 197.685 40.1799Z" fill="white" stroke="#020000" stroke-width="0.367612" stroke-linecap="round" stroke-linejoin="round"/>
<g clip-path="url(#clip3_618_1589)">
<path d="M200.516 40.2528C205.966 40.2528 210.384 35.8349 210.384 30.3851C210.384 24.9353 205.966 20.5173 200.516 20.5173C195.066 20.5173 190.648 24.9353 190.648 30.3851C190.648 35.8349 195.066 40.2528 200.516 40.2528Z" fill="#EAEEF2"/>
<path d="M206.684 30.7946C206.684 33.9769 204.11 36.5508 200.928 36.5508C197.75 36.5508 195.172 33.9769 195.172 30.7946C195.172 27.6164 197.75 25.0384 200.928 25.0384C204.11 25.0384 206.684 27.6164 206.684 30.7946Z" fill="#96A6A5"/>
<path d="M200.518 36.1413C203.697 36.1413 206.274 33.5641 206.274 30.3851C206.274 27.206 203.697 24.6289 200.518 24.6289C197.339 24.6289 194.762 27.206 194.762 30.3851C194.762 33.5641 197.339 36.1413 200.518 36.1413Z" fill="#FED000"/>
<path d="M200.514 35.0299C203.079 35.0299 205.159 32.9504 205.159 30.3851C205.159 27.8198 203.079 25.7403 200.514 25.7403C197.949 25.7403 195.869 27.8198 195.869 30.3851C195.869 32.9504 197.949 35.0299 200.514 35.0299Z" fill="#F39F03"/>
<path d="M200.623 29.5879H198.538C198.528 29.5878 198.518 29.585 198.509 29.5798C198.501 29.5747 198.494 29.5673 198.489 29.5584C198.484 29.5496 198.482 29.5397 198.482 29.5297C198.483 29.5196 198.486 29.5099 198.491 29.5015C198.597 29.3403 198.695 29.1919 198.798 29.0476C198.816 29.0229 198.874 29.0184 198.914 29.018C199.435 29.0164 199.957 29.0168 200.478 29.0168H200.523C200.532 29.0167 200.542 29.0142 200.55 29.0095C200.558 29.0047 200.565 28.9979 200.57 28.9897C200.575 28.9815 200.578 28.9721 200.578 28.9625C200.579 28.953 200.576 28.9434 200.572 28.9349C200.517 28.8269 200.437 28.7334 200.339 28.6623C200.075 28.472 199.769 28.4251 199.456 28.4128C199.163 28.4008 198.871 28.4046 198.577 28.4017H198.536C198.526 28.4017 198.516 28.3989 198.508 28.3938C198.499 28.3887 198.492 28.3813 198.487 28.3724C198.482 28.3636 198.48 28.3536 198.481 28.3436C198.481 28.3335 198.484 28.3238 198.489 28.3153C198.524 28.2619 198.555 28.2142 198.587 28.1669C198.663 28.0542 198.716 27.8984 198.822 27.8429C198.932 27.7853 199.093 27.8232 199.232 27.8228H202.493C202.538 27.8228 202.565 27.8742 202.539 27.9108C202.49 27.9786 202.445 28.0407 202.414 28.1089C202.303 28.3482 202.133 28.442 201.865 28.407C201.689 28.3844 201.509 28.3967 201.318 28.4009C201.309 28.401 201.3 28.4035 201.291 28.4082C201.283 28.4129 201.276 28.4195 201.271 28.4276C201.266 28.4356 201.264 28.4448 201.263 28.4542C201.263 28.4636 201.265 28.473 201.269 28.4814C201.338 28.6258 201.416 28.7668 201.47 28.916C201.499 28.995 201.53 29.0201 201.611 29.0188C201.893 29.0143 202.175 29.0168 202.458 29.0172H202.494C202.538 29.0172 202.565 29.0665 202.54 29.1039C202.433 29.2651 202.333 29.4156 202.23 29.5628C202.215 29.5837 202.166 29.5879 202.133 29.5883C201.954 29.5907 201.776 29.5899 201.597 29.5891C201.548 29.5891 201.509 29.5899 201.497 29.6549C201.359 30.3555 200.889 30.7481 200.25 30.9665C200.06 31.0314 199.859 31.0627 199.655 31.1046C199.645 31.1065 199.637 31.1107 199.629 31.117C199.622 31.1232 199.616 31.1312 199.613 31.1402C199.61 31.1492 199.609 31.1589 199.61 31.1684C199.612 31.1778 199.616 31.1867 199.622 31.1942L201.772 33.8828C201.778 33.8911 201.782 33.901 201.784 33.9116C201.785 33.9221 201.783 33.9328 201.778 33.9423C201.774 33.9518 201.766 33.9598 201.757 33.9654C201.748 33.9709 201.738 33.9738 201.727 33.9737C201.495 33.972 201.275 33.9671 201.057 33.9778C200.914 33.9843 200.826 33.9387 200.736 33.8256C200.064 32.9733 199.383 32.1284 198.708 31.2781C198.67 31.2243 198.648 31.1611 198.644 31.0956C198.634 30.9821 198.645 30.867 198.64 30.7527C198.637 30.6791 198.661 30.654 198.737 30.6548C198.961 30.6573 199.187 30.6602 199.411 30.6474C199.746 30.6285 200.058 30.5384 200.324 30.3226C200.511 30.1696 200.628 29.9739 200.673 29.7371C200.677 29.7066 200.679 29.6758 200.679 29.645C200.679 29.6376 200.678 29.6302 200.675 29.6232C200.672 29.6163 200.668 29.61 200.663 29.6047C200.658 29.5993 200.652 29.5951 200.645 29.5922C200.638 29.5893 200.63 29.5879 200.623 29.5879Z" fill="white"/>
</g>
<path d="M115.375 20.2501C117.417 21.3815 118.573 22.7237 119.423 24.2515C120.945 24.481 122.462 24.6987 122.462 24.6987L120.182 25.8126C120.358 26.218 120.527 26.6341 120.697 27.0606L123.208 27.7976L121.256 28.4561C122.457 31.3899 124.124 34.7532 128.682 38.4441C128.682 38.4441 137.399 22.6493 115.375 20.2501Z" fill="white"/>
<mask id="mask2_618_1589" style="mask-type:luminance" maskUnits="userSpaceOnUse" x="115" y="20" width="16" height="19">
<path d="M115.371 20.2501C117.413 21.3814 118.569 22.7236 119.419 24.2514C120.941 24.481 122.458 24.6986 122.458 24.6986L120.178 25.8126C120.354 26.2179 120.523 26.634 120.693 27.0606L123.204 27.7976L121.252 28.4561C122.453 31.3899 124.12 34.7532 128.678 38.4441C128.678 38.4441 137.395 22.6493 115.371 20.2501Z" fill="white"/>
</mask>
<g mask="url(#mask2_618_1589)">
<path d="M111.795 20.2501L116.512 20.3902C116.512 20.3902 130.58 25.3848 130.379 35.9596C130.177 46.5344 119.508 40.3598 119.508 40.3598L111.795 20.2501Z" fill="#EFF1F7"/>
</g>
<path d="M115.375 20.2501C117.417 21.3815 118.573 22.7237 119.423 24.2515C120.945 24.481 122.462 24.6987 122.462 24.6987L120.182 25.8126C120.358 26.218 120.527 26.6341 120.697 27.0606L123.208 27.7976L121.256 28.4561C122.457 31.3899 124.124 34.7532 128.682 38.4441C128.682 38.4441 137.399 22.6493 115.375 20.2501Z" stroke="#020000" stroke-width="0.367612" stroke-linecap="round" stroke-linejoin="round"/>
<path d="M101.064 76.0714L104.326 159.956C104.494 164.289 108.097 167.781 112.375 167.781H201.048C205.325 167.781 208.929 164.289 209.097 159.956L212.358 76.0714C197.23 83.9844 177.845 88.737 156.711 88.737C135.578 88.737 116.193 83.9844 101.064 76.0714Z" fill="#242424"/>
<mask id="mask3_618_1589" style="mask-type:luminance" maskUnits="userSpaceOnUse" x="101" y="76" width="112" height="92">
<path d="M101.066 76.0714L104.327 159.956C104.496 164.289 108.099 167.781 112.377 167.781H201.05C205.327 167.781 208.931 164.289 209.099 159.956L212.36 76.0714C197.231 83.9844 177.847 88.737 156.713 88.737C135.58 88.737 116.195 83.9844 101.066 76.0714Z" fill="white"/>
</mask>
<g mask="url(#mask3_618_1589)">
<path d="M61.7949 166.417C212.453 167.39 208.854 132.27 211.939 82.6879C215.024 33.106 254.617 194.764 254.617 194.764L244.333 203.544L107.723 195.28L73.6213 172.555" fill="#F1AF4A"/>
</g>
<path d="M101.064 76.0714L104.326 159.956C104.494 164.289 108.097 167.781 112.375 167.781H201.048C205.325 167.781 208.929 164.289 209.097 159.956L212.358 76.0714C197.23 83.9844 177.845 88.737 156.711 88.737C135.578 88.737 116.193 83.9844 101.064 76.0714Z" stroke="#020000" stroke-width="0.367612" stroke-linecap="round" stroke-linejoin="round"/>
<path d="M213.526 46.0847C213.674 42.2677 211.694 38.9753 208.737 37.5388C208.533 37.4392 208.323 37.3497 208.109 37.2684C195.35 31.8532 177.047 28.4595 156.713 28.4595C136.379 28.4595 118.076 31.8532 105.317 37.2684C105.103 37.3496 104.893 37.4392 104.688 37.5388C101.732 38.9753 99.752 42.2677 99.9004 46.0847L100.911 72.086L101.066 76.0714C116.195 83.9844 135.579 88.737 156.713 88.737C177.847 88.737 197.231 83.9844 212.36 76.0714L212.515 72.086L213.526 46.0847Z" fill="white" stroke="#020000" stroke-width="0.367612" stroke-linecap="round" stroke-linejoin="round"/>
<path d="M156.71 102.977C164.964 102.977 171.655 96.2568 171.655 87.9664C171.655 79.6761 164.964 72.9555 156.71 72.9555C148.457 72.9555 141.766 79.6761 141.766 87.9664C141.766 96.2568 148.457 102.977 156.71 102.977Z" fill="#000002"/>
<path d="M156.711 100.509C164.554 100.509 170.912 94.1229 170.912 86.2449C170.912 78.3669 164.554 71.9805 156.711 71.9805C148.868 71.9805 142.51 78.3669 142.51 86.2449C142.51 94.1229 148.868 100.509 156.711 100.509Z" fill="white" stroke="#020000" stroke-width="0.367612" stroke-linecap="round" stroke-linejoin="round"/>
<path d="M156.711 97.7946C163.062 97.7946 168.21 92.6236 168.21 86.2449C168.21 79.8661 163.062 74.6951 156.711 74.6951C150.361 74.6951 145.213 79.8661 145.213 86.2449C145.213 92.6236 150.361 97.7946 156.711 97.7946Z" fill="white"/>
<path d="M156.711 97.7946C163.062 97.7946 168.21 92.6236 168.21 86.2449C168.21 79.8661 163.062 74.6951 156.711 74.6951C150.361 74.6951 145.213 79.8661 145.213 86.2449C145.213 92.6236 150.361 97.7946 156.711 97.7946Z" stroke="#020000" stroke-width="0.367612" stroke-linecap="round" stroke-linejoin="round"/>
<path d="M201.048 168.669H112.375C107.636 168.669 103.629 164.776 103.443 159.991L99.0162 46.1194C98.8585 42.0583 100.933 38.3766 104.302 36.7398C104.519 36.6344 104.75 36.5351 104.987 36.4445C118.281 30.8057 137.133 27.5719 156.712 27.5719C176.291 27.5719 195.142 30.8055 208.436 36.4444C208.675 36.5354 208.905 36.6347 209.121 36.7397V36.7398C212.49 38.3766 214.565 42.0583 214.407 46.1194L209.981 159.991C209.795 164.776 205.788 168.669 201.048 168.669ZM156.712 29.3471C137.353 29.3471 118.746 32.5323 105.66 38.086L105.629 38.0986C105.434 38.1725 105.247 38.253 105.072 38.338C102.336 39.6673 100.652 42.6945 100.782 46.0501L105.209 159.922C105.359 163.766 108.573 166.894 112.375 166.894H201.048C204.85 166.894 208.065 163.766 208.215 159.922L212.641 46.0501C212.772 42.6945 211.088 39.6673 208.352 38.3378V38.3379C208.178 38.2533 207.99 38.1728 207.795 38.0987L207.764 38.0861C194.678 32.5323 176.071 29.3471 156.712 29.3471Z" fill="#1A1919" stroke="#F1AF4A" stroke-width="0.367612" stroke-linecap="round" stroke-linejoin="round"/>
<path d="M99.1702 17.3654C94.9902 24.6963 93.4641 29.4281 97.6442 38.4251C97.6442 38.4251 106.601 27.562 99.1702 17.3654Z" fill="white"/>
<mask id="mask4_618_1589" style="mask-type:luminance" maskUnits="userSpaceOnUse" x="95" y="17" width="8" height="22">
<path d="M99.1722 17.3654C94.9922 24.6963 93.4661 29.4281 97.6461 38.4251C97.6461 38.4251 106.603 27.562 99.1722 17.3654Z" fill="white"/>
</mask>
<g mask="url(#mask4_618_1589)">
<path d="M101.065 12.5827L99.1714 17.3654C99.1714 17.3654 99.2151 36.7569 97.9231 38.3593C96.6311 39.9616 105.106 39.9954 105.106 39.9954L106.261 22.9976L104.472 19.6776" fill="#EFF1F7"/>
</g>
<path d="M99.1702 17.3654C94.9902 24.6963 93.4641 29.4281 97.6442 38.4251C97.6442 38.4251 106.601 27.562 99.1702 17.3654Z" stroke="#020000" stroke-width="0.367612" stroke-linecap="round" stroke-linejoin="round"/>
<path d="M112.422 35.073C106.211 32.6705 102.562 32.2403 97.793 38.1933C97.793 38.1933 107.843 44.3953 112.422 35.073Z" fill="white"/>
<mask id="mask5_618_1589" style="mask-type:luminance" maskUnits="userSpaceOnUse" x="97" y="33" width="16" height="8">
<path d="M112.418 35.0731C106.207 32.6705 102.558 32.2403 97.7891 38.1933C97.7891 38.1933 107.839 44.3953 112.418 35.0731Z" fill="white"/>
</mask>
<g mask="url(#mask5_618_1589)">
<path d="M115.373 33.7492L114.339 34.2125L112.42 35.0731L97.9219 38.3593L99.8901 43.1774L115.011 44.3825" fill="#EFF1F7"/>
</g>
<path d="M112.422 35.073C106.211 32.6705 102.562 32.2403 97.793 38.1933C97.793 38.1933 107.843 44.3953 112.422 35.073Z" stroke="#020000" stroke-width="0.367612" stroke-linecap="round" stroke-linejoin="round"/>
<path d="M99.6694 53.7C99.4925 53.6313 99.3246 53.5412 99.1694 53.4319C99.0221 53.3178 98.8825 53.1939 98.7518 53.0612C98.6219 52.928 98.4978 52.7894 98.3708 52.6536C98.2464 52.5155 98.1312 52.3697 98.0112 52.228C97.548 51.6492 97.1372 51.0302 96.7838 50.3785C96.0756 49.0779 95.5822 47.6713 95.3228 46.2132C95.0722 44.759 95.048 43.2494 95.3805 41.7938C95.547 41.0639 95.8213 40.3629 96.1943 39.7137C96.5683 39.0615 97.0663 38.4886 97.66 38.0273L97.922 38.3593C97.3956 38.8085 96.9574 39.3519 96.63 39.9616C96.3035 40.5756 96.0689 41.2343 95.934 41.9165C95.6484 43.2838 95.6964 44.7172 95.9618 46.0955C96.2263 47.4786 96.7063 48.8116 97.384 50.0459C97.7215 50.659 98.1129 51.2409 98.5535 51.7847C98.6671 51.9167 98.7759 52.0532 98.8932 52.1817C99.013 52.3077 99.1298 52.4368 99.2517 52.5605C99.3801 52.678 99.5011 52.8034 99.6139 52.9359C99.7377 53.0669 99.8451 53.2126 99.9335 53.3697L99.6694 53.7Z" fill="white" stroke="#020000" stroke-width="0.367612" stroke-linecap="round" stroke-linejoin="round"/>
<path d="M128.644 42.9519C127.919 45.2175 126.551 47.2235 124.707 48.7256" stroke="#020000" stroke-width="0.367612" stroke-linecap="round" stroke-linejoin="round"/>
<path d="M154.501 137.61C152.916 138.749 151.187 139.673 149.359 140.359M200.097 48.4372L196.669 55.3236" stroke="#020000" stroke-width="0.367612" stroke-linecap="round" stroke-linejoin="round"/>
<path d="M118.391 143.393C98.4541 148.165 91.6758 140.356 91.6758 140.356C91.6758 140.356 96.5846 100.514 112.363 98.2969C128.142 96.0796 118.391 143.393 118.391 143.393Z" fill="white" stroke="#020000" stroke-width="0.367612" stroke-linecap="round" stroke-linejoin="round"/>
<path d="M43.6114 91.3193C43.217 86.639 54.7983 95.0634 54.7983 95.0634C54.7983 95.0634 72.9119 93.0353 75.6913 95.0634C78.4707 97.0915 105.672 123.925 105.672 123.925C105.62 123.858 84.6059 127.783 85.9582 127.314C78.3 118.322 71.5669 98.4935 55.1016 99.301C50.3222 99.565 46.7542 94.1403 43.6114 91.3193Z" fill="white"/>
<mask id="mask6_618_1589" style="mask-type:luminance" maskUnits="userSpaceOnUse" x="43" y="89" width="63" height="39">
<path d="M43.6153 91.3193C43.221 86.6391 54.8022 95.0634 54.8022 95.0634C54.8022 95.0634 72.9158 93.0353 75.6952 95.0634C78.4746 97.0915 105.676 123.925 105.676 123.925C105.624 123.858 84.6098 127.783 85.9621 127.314C78.3039 118.322 71.5708 98.4935 55.1055 99.3011C50.3261 99.565 46.7581 94.1403 43.6153 91.3193Z" fill="white"/>
</mask>
<g mask="url(#mask6_618_1589)">
<path d="M72.8164 109.535C84.1851 115.558 96.3034 113.486 96.3034 113.486C95.6826 113.582 85.2182 129.949 85.5029 127.17C79.5643 123.952 67.785 121.953 68.5063 116.625" fill="#EFF1F7"/>
</g>
<path d="M43.6114 91.3193C43.217 86.639 54.7983 95.0634 54.7983 95.0634C54.7983 95.0634 72.9119 93.0353 75.6913 95.0634C78.4707 97.0915 105.672 123.925 105.672 123.925C105.62 123.858 84.6059 127.783 85.9582 127.314C78.3 118.322 71.5669 98.4935 55.1016 99.301C50.3222 99.565 46.7542 94.1403 43.6114 91.3193Z" stroke="#020000" stroke-width="0.367612" stroke-linecap="round" stroke-linejoin="round"/>
<path d="M119.636 170.399L188.811 168.414C188.402 168.042 175.177 97.1062 170.041 95.2034C164.712 91.5788 125.86 87.58 114.598 99.441C105.709 118.701 119.683 170.136 119.636 170.399Z" fill="white"/>
<mask id="mask7_618_1589" style="mask-type:luminance" maskUnits="userSpaceOnUse" x="111" y="91" width="78" height="80">
<path d="M119.634 170.399L188.809 168.414C188.4 168.042 175.175 97.1062 170.039 95.2034C164.71 91.5788 125.858 87.58 114.596 99.441C105.707 118.701 119.681 170.136 119.634 170.399Z" fill="white"/>
</mask>
<g mask="url(#mask7_618_1589)">
<path d="M161.68 108.643C179.29 161.928 147.394 162.013 127.766 163.026C104.121 164.246 113.908 180.222 113.908 180.222L203.245 176.553L210.722 148.046L167.097 114.295" fill="#EFF1F7"/>
<g opacity="0.16">
<path d="M122.4 196.536L115.769 198.619L78.2422 78.1045L84.8732 76.0213L122.4 196.536Z" stroke="#020000" stroke-width="0.367612" stroke-linecap="round" stroke-linejoin="round"/>
<path d="M135.046 192.563L128.415 194.646L90.8887 74.1316L97.5196 72.0484L135.046 192.563Z" stroke="#020000" stroke-width="0.367612" stroke-linecap="round" stroke-linejoin="round"/>
<path d="M147.693 188.59L141.062 190.673L103.535 70.1586L110.166 68.0754L147.693 188.59Z" stroke="#020000" stroke-width="0.367612" stroke-linecap="round" stroke-linejoin="round"/>
<path d="M160.337 184.617L153.706 186.7L116.18 66.1857L122.811 64.1024L160.337 184.617Z" stroke="#020000" stroke-width="0.367612" stroke-linecap="round" stroke-linejoin="round"/>
<path d="M172.986 180.644L166.355 182.727L128.828 62.2127L135.459 60.1295L172.986 180.644Z" stroke="#020000" stroke-width="0.367612" stroke-linecap="round" stroke-linejoin="round"/>
<path d="M185.63 176.671L178.999 178.754L141.473 58.2398L148.104 56.1566L185.63 176.671Z" stroke="#020000" stroke-width="0.367612" stroke-linecap="round" stroke-linejoin="round"/>
<path d="M198.277 172.698L191.646 174.781L154.119 54.2668L160.75 52.1836L198.277 172.698Z" stroke="#020000" stroke-width="0.367612" stroke-linecap="round" stroke-linejoin="round"/>
</g>
<g opacity="0.46">
<path d="M54.0781 96.2314L51.5234 88.0273L175.69 49.0186L178.245 57.2228L54.0781 96.2314Z" stroke="#020000" stroke-width="0.367612" stroke-linecap="round" stroke-linejoin="round"/>
<path d="M58.9492 111.878L56.3945 103.674L180.562 64.6651L183.116 72.8692L58.9492 111.878Z" stroke="#020000" stroke-width="0.367612" stroke-linecap="round" stroke-linejoin="round"/>
<path d="M63.8222 127.524L61.2676 119.32L185.435 80.3115L187.989 88.5157L63.8222 127.524Z" stroke="#020000" stroke-width="0.367612" stroke-linecap="round" stroke-linejoin="round"/>
<path d="M68.6933 143.171L66.1387 134.967L190.306 95.9579L192.86 104.162L68.6933 143.171Z" stroke="#020000" stroke-width="0.367612" stroke-linecap="round" stroke-linejoin="round"/>
<path d="M73.5684 158.817L71.0137 150.613L195.181 111.604L197.735 119.809L73.5684 158.817Z" stroke="#020000" stroke-width="0.367612" stroke-linecap="round" stroke-linejoin="round"/>
</g>
</g>
<path d="M119.636 170.399L188.811 168.414C188.402 168.042 175.177 97.1062 170.041 95.2034C164.712 91.5788 125.86 87.58 114.598 99.441C105.709 118.701 119.683 170.136 119.636 170.399Z" stroke="#020000" stroke-width="0.367612" stroke-linecap="round" stroke-linejoin="round"/>
<path d="M121.957 81.5626L128.367 101.342L143.121 91.5275L134.221 71.9431L121.957 81.5626Z" fill="white"/>
<mask id="mask8_618_1589" style="mask-type:luminance" maskUnits="userSpaceOnUse" x="121" y="71" width="23" height="31">
<path d="M121.955 81.5626L128.365 101.342L143.119 91.5275L134.219 71.9431L121.955 81.5626Z" fill="white"/>
</mask>
<g mask="url(#mask8_618_1589)">
<path d="M128.222 102.911C137.794 100.198 121.69 87.7682 126.813 84.3808C128.222 83.449 124.488 78.2413 124.488 78.2413L120.691 81.5963" fill="#EFF1F7"/>
</g>
<path d="M121.957 81.5626L128.367 101.342L143.121 91.5275L134.221 71.9431L121.957 81.5626Z" stroke="#020000" stroke-width="0.367612" stroke-linecap="round" stroke-linejoin="round"/>
<path d="M205.966 158.196C188.567 108.275 194.527 121.41 167.938 120.364L179.044 150.934L139.71 162.429L135.802 163.313C135.802 163.313 129.655 157.385 127.657 157.958C125.658 158.53 114.211 167.305 114.211 167.305H135.319L134.944 170.399L195.222 170.399C205.145 170.664 207.536 163.793 205.966 158.196Z" fill="white"/>
<path d="M205.966 158.196C188.567 108.275 194.527 121.41 167.938 120.364L179.044 150.934L139.71 162.429L135.802 163.313C135.802 163.313 129.655 157.385 127.657 157.958C125.658 158.53 114.211 167.305 114.211 167.305H135.319L134.944 170.399L195.222 170.399C205.145 170.664 207.536 163.793 205.966 158.196Z" stroke="#020000" stroke-width="0.367612" stroke-linecap="round" stroke-linejoin="round"/>
<path d="M172.229 141.043C192.97 145.815 202.119 142.858 205.646 137.616C209.172 132.374 182.825 88.76 167.482 93.5119C151.903 98.3367 172.229 141.043 172.229 141.043Z" fill="white"/>
<path d="M172.229 141.043C192.97 145.815 202.119 142.858 205.646 137.616C209.172 132.374 182.825 88.76 167.482 93.5119C151.903 98.3367 172.229 141.043 172.229 141.043Z" stroke="#020000" stroke-width="0.367612" stroke-linecap="round" stroke-linejoin="round"/>
<path d="M134.299 168.443C99.3736 96.7038 131.819 116.209 46.3723 113.485C39.6293 114.181 34.8395 111.552 35.0103 115.85L35.26 115.636C70.5838 187.879 38.5144 167.797 123.704 171.597C129.595 170.905 133.778 174.074 134.299 168.443Z" fill="white" stroke="#020000" stroke-width="0.367612" stroke-linecap="round" stroke-linejoin="round"/>
<path d="M131.467 171.69C46.3431 169.706 63.4557 180.92 49.3532 150.781C42.49 132.381 31.0641 116.451 35.4183 114.324C35.3941 114.337 106.532 114.313 106.624 114.323C112.25 115.918 112.962 125.427 120.768 140.681C127.227 157.812 136.854 169.953 131.467 171.69Z" fill="#1A1919"/>
<mask id="mask9_618_1589" style="mask-type:luminance" maskUnits="userSpaceOnUse" x="34" y="114" width="100" height="59">
<path d="M131.469 171.69C46.345 169.707 63.4576 180.921 49.3551 150.781C42.4919 132.381 31.0661 116.451 35.4203 114.324C35.396 114.337 106.534 114.313 106.626 114.323C112.252 115.918 112.964 125.427 120.77 140.681C127.229 157.812 136.856 169.953 131.469 171.69Z" fill="white"/>
</mask>
<g mask="url(#mask9_618_1589)">
<path d="M35.4197 114.323C81.4309 209.772 121.019 157.948 139.954 172.315C158.888 186.683 59.4431 190.006 59.4431 190.006L16.4668 166.498" fill="#F1AF4A"/>
</g>
<path d="M131.467 171.69C46.3431 169.706 63.4557 180.92 49.3532 150.781C42.49 132.381 31.0641 116.451 35.4183 114.324C35.3941 114.337 106.532 114.313 106.624 114.323C112.25 115.918 112.962 125.427 120.768 140.681C127.227 157.812 136.854 169.953 131.467 171.69Z" stroke="#020000" stroke-width="0.367612" stroke-linecap="round" stroke-linejoin="round"/>
<path d="M132.896 105.307C123.42 100.429 134.865 94.819 139.435 86.1567C139.944 82.2206 146.638 90.4805 147.911 91.4169L132.896 105.307Z" fill="white" stroke="#020000" stroke-width="0.367612" stroke-linecap="round" stroke-linejoin="round"/>
<path d="M125.17 105.307C131.611 101.156 126.096 96.0261 124.234 88.3757C124.113 84.0947 120.472 94.5841 120.018 95.4826C119.957 95.4101 124.977 104.906 125.17 105.307Z" fill="white" stroke="#020000" stroke-width="0.367612" stroke-linecap="round" stroke-linejoin="round"/>
<path d="M129.172 109.977C126.724 110.281 128.208 105.09 130.36 108.506C130.341 108.936 130.325 109.343 129.172 109.977ZM129.836 121.695C127.388 121.999 128.871 116.808 131.023 120.224C131.004 120.654 130.988 121.061 129.836 121.695Z" fill="white" stroke="#020000" stroke-width="0.367612" stroke-linecap="round" stroke-linejoin="round"/>
<path d="M117.973 75.9846C116.185 77.986 113.929 77.3645 113.929 77.3645M97.384 141.061L104.734 146.387M178.913 150.832C179.984 151.665 180.691 152.88 180.886 154.222M157.391 146.025L155.392 148.033M68.5 102.113C69.303 101.637 69.9543 100.943 70.3782 100.111" stroke="#020000" stroke-width="0.367612" stroke-linecap="round" stroke-linejoin="round"/>
<path d="M119.282 74.5008C98.5694 54.2819 108.433 48.0679 122.236 48.8886C136.039 49.7093 152.03 57.7494 136.739 72.899H129.969L127.751 66.241" fill="#020000"/>
<mask id="mask10_618_1589" style="mask-type:luminance" maskUnits="userSpaceOnUse" x="107" y="48" width="36" height="27">
<path d="M119.284 74.5008C98.5713 54.282 108.435 48.0679 122.238 48.8886C136.041 49.7094 152.032 57.7494 136.741 72.899H129.971L127.753 66.241" fill="white"/>
</mask>
<g mask="url(#mask10_618_1589)">
<path d="M116.383 56.6647C115.799 55.247 111.918 57.7533 112.808 66.5011C113.697 75.2489 116.964 69.6179 116.964 69.6179" fill="#000002"/>
</g>
<path d="M119.282 74.5008C98.5694 54.2819 108.433 48.0679 122.236 48.8886C136.039 49.7093 152.03 57.7494 136.739 72.899H129.969L127.751 66.241" stroke="#020000" stroke-width="0.367612" stroke-linecap="round" stroke-linejoin="round"/>
<path d="M117.556 54.1624C111.087 62.5713 115.146 65.884 111.722 77.7329C108.984 87.205 127.704 91.1107 131.509 75.8218C135.314 60.5328 126.562 54.1624 126.562 54.1624" fill="white"/>
<mask id="mask11_618_1589" style="mask-type:luminance" maskUnits="userSpaceOnUse" x="111" y="54" width="22" height="33">
<path d="M117.554 54.1624C111.085 62.5713 115.144 65.8839 111.72 77.7329C108.982 87.205 127.702 91.1107 131.507 75.8217C135.313 60.5328 126.56 54.1624 126.56 54.1624" fill="white"/>
</mask>
<g mask="url(#mask11_618_1589)">
<path d="M129.494 70.0686C120.755 69.5865 116.965 53.9859 116.965 53.9859L123.713 54.5138L128.968 61.7096" fill="#EFF1F7"/>
</g>
<path d="M117.556 54.1624C111.087 62.5713 115.146 65.884 111.722 77.7329C108.984 87.205 127.704 91.1107 131.509 75.8218C135.314 60.5328 126.562 54.1624 126.562 54.1624" stroke="#020000" stroke-width="0.367612" stroke-linecap="round" stroke-linejoin="round"/>
<path d="M115.01 65.6522C114.641 70.494 118.325 70.6365 118.92 66.1496C119.289 61.3081 115.604 61.1655 115.01 65.6522Z" fill="white"/>
<mask id="mask12_618_1589" style="mask-type:luminance" maskUnits="userSpaceOnUse" x="114" y="62" width="5" height="8">
<path d="M115.008 65.6522C114.639 70.494 118.323 70.6365 118.918 66.1496C119.287 61.3081 115.603 61.1655 115.008 65.6522Z" fill="white"/>
</mask>
<g mask="url(#mask12_618_1589)">
<path d="M114.599 65.8971C114.508 68.2304 116.374 68.5066 116.626 65.9529C116.717 63.6198 114.851 63.3436 114.599 65.8971Z" fill="#280E0E"/>
</g>
<path d="M114 65.3251C111.778 67.7636 109.993 68.2115 109.933 69.2218C109.873 70.2321 111.537 71.805 113.928 71.7635" fill="white"/>
<path d="M114 65.3251C111.778 67.7636 109.993 68.2115 109.933 69.2218C109.873 70.2321 111.537 71.805 113.928 71.7635" stroke="#020000" stroke-width="0.367612" stroke-linecap="round" stroke-linejoin="round"/>
<path opacity="0.27" d="M119.972 73.7666C120.967 75.0178 123.102 75.1414 124.797 74.017C126.55 72.8535 127.183 70.7953 126.147 69.448C125.103 68.0906 122.818 68.0389 121.106 69.301C119.451 70.5202 118.969 72.5065 119.972 73.7666Z" fill="#EFF1F7"/>
<path d="M116.507 59.1436C120.46 59.2598 121.219 60.9659 118.743 61.0552C116.268 61.1446 113.925 59.0677 116.507 59.1436Z" fill="#280E0E"/>
<path d="M118.722 73.9676C117.423 76.2285 115.332 75.6571 115.332 75.6571" stroke="#020000" stroke-width="0.367612" stroke-linecap="round" stroke-linejoin="round"/>
<path d="M117.025 51.6548C118.51 67.7463 136.739 72.899 136.739 72.899L140.355 66.6113L130.384 53.7159L117.025 51.6548Z" fill="#020000"/>
<mask id="mask13_618_1589" style="mask-type:luminance" maskUnits="userSpaceOnUse" x="117" y="51" width="24" height="22">
<path d="M117.027 51.6548C118.512 67.7464 136.741 72.8991 136.741 72.8991L140.357 66.6114L130.386 53.7159L117.027 51.6548Z" fill="white"/>
</mask>
<g mask="url(#mask13_618_1589)">
<path d="M136.61 68.8423C131.987 65.38 127.109 67.3983 126.927 68.3908C126.744 69.3833 131.724 69.6472 131.724 69.6472" fill="#000002"/>
</g>
<path d="M117.025 51.6548C118.51 67.7463 136.739 72.899 136.739 72.899L140.355 66.6113L130.384 53.7159L117.025 51.6548Z" stroke="#020000" stroke-width="0.367612" stroke-linecap="round" stroke-linejoin="round"/>
<path d="M127.736 69.2341C141.038 62.6833 141.298 79.5649 129.195 77.7227L127.736 69.2341Z" fill="white"/>
<path d="M127.736 69.2341C141.038 62.6833 141.298 79.5649 129.195 77.7227" stroke="#020000" stroke-width="0.367612" stroke-linecap="round" stroke-linejoin="round"/>
<path d="M132.665 70.0708C133.756 69.9848 134.438 72.4782 132.211 73.553" stroke="#020000" stroke-width="0.367612" stroke-linecap="round" stroke-linejoin="round"/>
<path d="M123.449 52.9594C123.216 57.5346 132.947 58.7421 132.947 58.7421L123.449 52.9594Z" fill="#000002"/>
<path d="M55.6348 64.4936H55.6357H55.6348Z" fill="#1A1919" stroke="#020000" stroke-width="0.367612" stroke-linecap="round" stroke-linejoin="round"/>
<path d="M55.6348 64.4936H70.7242C70.9283 64.4925 71.13 64.4487 71.3162 64.365C71.5024 64.2813 71.6691 64.1596 71.8054 64.0076C71.9418 63.8557 72.0448 63.6769 72.1079 63.4827C72.171 63.2886 72.1928 63.0834 72.1719 62.8803C71.9965 61.0464 71.5176 59.2545 70.7548 57.5777C70.6713 57.3923 70.5498 57.2265 70.3983 57.091C70.2467 56.9555 70.0684 56.8533 69.8749 56.791C69.6814 56.7286 69.477 56.7075 69.2749 56.7291C69.0727 56.7506 68.8773 56.8143 68.7013 56.916L55.6348 64.4936Z" fill="#1A1919"/>
<mask id="mask14_618_1589" style="mask-type:luminance" maskUnits="userSpaceOnUse" x="55" y="56" width="18" height="9">
<path d="M55.6387 64.4936H70.7281C70.9322 64.4925 71.1339 64.4487 71.3201 64.365C71.5063 64.2813 71.673 64.1596 71.8093 64.0076C71.9457 63.8557 72.0487 63.6769 72.1118 63.4827C72.175 63.2886 72.1967 63.0834 72.1758 62.8803C72.0004 61.0464 71.5215 59.2545 70.7587 57.5777C70.6752 57.3923 70.5537 57.2265 70.4022 57.091C70.2506 56.9555 70.0723 56.8533 69.8788 56.791C69.6854 56.7286 69.4809 56.7075 69.2788 56.7291C69.0766 56.7506 68.8813 56.8143 68.7052 56.916L55.6387 64.4936Z" fill="white"/>
</mask>
<g mask="url(#mask14_618_1589)">
<path d="M73.4601 59.1897C69.8078 62.9251 61.0021 59.8901 62.3265 62.4118C63.651 64.9335 60.918 64.4936 60.918 64.4936L72.6354 65.2919L73.4601 60.6067" fill="#F1AF4A"/>
</g>
<path d="M55.6348 64.4936H70.7242C70.9283 64.4925 71.13 64.4487 71.3162 64.365C71.5024 64.2813 71.6691 64.1596 71.8054 64.0076C71.9418 63.8557 72.0448 63.6769 72.1079 63.4827C72.171 63.2886 72.1928 63.0834 72.1719 62.8803C71.9965 61.0464 71.5176 59.2545 70.7548 57.5777C70.6713 57.3923 70.5498 57.2265 70.3983 57.091C70.2467 56.9555 70.0684 56.8533 69.8749 56.791C69.6814 56.7286 69.477 56.7075 69.2749 56.7291C69.0727 56.7506 68.8773 56.8143 68.7013 56.916L55.6348 64.4936Z" stroke="#020000" stroke-width="0.367612" stroke-linecap="round" stroke-linejoin="round"/>
<path d="M55.6357 64.4936H55.6348H55.6357Z" fill="#1A1919" stroke="#020000" stroke-width="0.367612" stroke-linecap="round" stroke-linejoin="round"/>
<path d="M55.6348 64.4936H55.6357H55.6348Z" fill="#1A1919" stroke="#020000" stroke-width="0.367612" stroke-linecap="round" stroke-linejoin="round"/>
<path d="M55.6348 64.4936L68.6986 56.9176C68.8749 56.8145 69.0278 56.6757 69.1474 56.5102C69.267 56.3446 69.3508 56.156 69.3933 55.9562C69.4359 55.7565 69.4363 55.55 69.3946 55.3501C69.3528 55.1502 69.2698 54.9612 69.1509 54.7951C68.0854 53.2995 66.7811 51.9894 65.2902 50.9173C65.1251 50.798 64.9367 50.7146 64.7372 50.6727C64.5378 50.6308 64.3318 50.6313 64.1326 50.6741C63.9333 50.717 63.7453 50.8012 63.5807 50.9214C63.4162 51.0415 63.2787 51.1949 63.1771 51.3716L55.6348 64.4936Z" fill="#1A1919"/>
<mask id="mask15_618_1589" style="mask-type:luminance" maskUnits="userSpaceOnUse" x="55" y="50" width="15" height="15">
<path d="M55.6387 64.4936L68.7025 56.9176C68.8788 56.8145 69.0317 56.6757 69.1513 56.5102C69.2709 56.3447 69.3547 56.156 69.3972 55.9562C69.4398 55.7565 69.4402 55.55 69.3985 55.3501C69.3567 55.1502 69.2737 54.9612 69.1548 54.7951C68.0893 53.2995 66.785 51.9894 65.2941 50.9174C65.129 50.798 64.9406 50.7146 64.7412 50.6727C64.5417 50.6308 64.3357 50.6313 64.1365 50.6742C63.9373 50.717 63.7492 50.8012 63.5847 50.9214C63.4201 51.0415 63.2826 51.1949 63.1811 51.3716L55.6387 64.4936Z" fill="white"/>
</mask>
<g mask="url(#mask15_618_1589)">
<path d="M69.4254 53.7406C70.8792 56.1813 55.2832 62.7493 55.2832 62.7493L69.7747 58.7996L72.179 54.6281" fill="#F1AF4A"/>
</g>
<path d="M55.6348 64.4936L68.6986 56.9176C68.8749 56.8145 69.0278 56.6757 69.1474 56.5102C69.267 56.3446 69.3508 56.156 69.3933 55.9562C69.4359 55.7565 69.4363 55.55 69.3946 55.3501C69.3528 55.1502 69.2698 54.9612 69.1509 54.7951C68.0854 53.2995 66.7811 51.9894 65.2902 50.9173C65.1251 50.798 64.9367 50.7146 64.7372 50.6727C64.5378 50.6308 64.3318 50.6313 64.1326 50.6741C63.9333 50.717 63.7453 50.8012 63.5807 50.9214C63.4162 51.0415 63.2787 51.1949 63.1771 51.3716L55.6348 64.4936Z" stroke="#020000" stroke-width="0.367612" stroke-linecap="round" stroke-linejoin="round"/>
<path d="M45.981 50.9174C44.4901 51.9894 43.1858 53.2995 42.1204 54.7951C42.0015 54.9612 41.9185 55.1502 41.8767 55.3501C41.835 55.55 41.8354 55.7565 41.8779 55.9562C41.9205 56.156 42.0043 56.3447 42.1239 56.5102C42.2435 56.6757 42.3964 56.8145 42.5727 56.9176L50.9359 61.7676C52.2245 62.5149 53.6666 61.0664 52.9226 59.772L48.0941 51.3716C47.9926 51.1949 47.8551 51.0415 47.6905 50.9214C47.5259 50.8012 47.3379 50.717 47.1387 50.6742C46.9394 50.6313 46.7334 50.6309 46.534 50.6728C46.3346 50.7147 46.1462 50.798 45.981 50.9174Z" fill="#1A1919"/>
<mask id="mask16_618_1589" style="mask-type:luminance" maskUnits="userSpaceOnUse" x="41" y="50" width="13" height="12">
<path d="M45.9849 50.9174C44.494 51.9894 43.1898 53.2995 42.1243 54.7951C42.0054 54.9612 41.9224 55.1502 41.8806 55.3501C41.8389 55.55 41.8393 55.7565 41.8818 55.9562C41.9244 56.156 42.0082 56.3447 42.1278 56.5102C42.2474 56.6757 42.4003 56.8145 42.5766 56.9176L50.9398 61.7676C52.2284 62.5149 53.6705 61.0664 52.9265 59.772L48.098 51.3716C47.9965 51.1949 47.859 51.0415 47.6944 50.9214C47.5298 50.8012 47.3418 50.717 47.1426 50.6742C46.9433 50.6313 46.7373 50.6309 46.5379 50.6728C46.3385 50.7147 46.1501 50.798 45.9849 50.9174Z" fill="white"/>
</mask>
<g mask="url(#mask16_618_1589)">
<path d="M45.7719 48.7456C39.4098 55.1147 52.4616 60.1915 50.9356 61.7676C49.4097 63.3438 39.459 60.6916 39.459 60.6916L40.3523 52.3928" fill="#F1AF4A"/>
</g>
<path d="M45.981 50.9174C44.4901 51.9894 43.1858 53.2995 42.1204 54.7951C42.0015 54.9612 41.9185 55.1502 41.8767 55.3501C41.835 55.55 41.8354 55.7565 41.8779 55.9562C41.9205 56.156 42.0043 56.3447 42.1239 56.5102C42.2435 56.6757 42.3964 56.8145 42.5727 56.9176L50.9359 61.7676C52.2245 62.5149 53.6666 61.0664 52.9226 59.772L48.0941 51.3716C47.9926 51.1949 47.8551 51.0415 47.6905 50.9214C47.5259 50.8012 47.3379 50.717 47.1387 50.6742C46.9394 50.6313 46.7334 50.6309 46.534 50.6728C46.3346 50.7147 46.1462 50.798 45.981 50.9174Z" stroke="#020000" stroke-width="0.367612" stroke-linecap="round" stroke-linejoin="round"/>
<path d="M55.6366 64.4936L42.5701 56.916C42.3941 56.8143 42.1987 56.7506 41.9965 56.7291C41.7944 56.7075 41.59 56.7286 41.3965 56.791C41.203 56.8533 41.0247 56.9555 40.8732 57.091C40.7216 57.2265 40.6002 57.3923 40.5167 57.5777C39.7538 59.2545 39.2749 61.0464 39.0995 62.8803C39.0786 63.0834 39.1004 63.2886 39.1635 63.4827C39.2266 63.6769 39.3297 63.8557 39.466 64.0076C39.6024 64.1596 39.769 64.2813 39.9552 64.365C40.1414 64.4487 40.3431 64.4925 40.5472 64.4936H55.6366Z" fill="#1A1919"/>
<mask id="mask17_618_1589" style="mask-type:luminance" maskUnits="userSpaceOnUse" x="39" y="56" width="17" height="9">
<path d="M55.6366 64.4936L42.5701 56.916C42.3941 56.8143 42.1987 56.7506 41.9965 56.7291C41.7944 56.7075 41.59 56.7286 41.3965 56.791C41.203 56.8533 41.0247 56.9555 40.8732 57.091C40.7216 57.2265 40.6002 57.3923 40.5167 57.5777C39.7538 59.2545 39.2749 61.0464 39.0995 62.8803C39.0786 63.0834 39.1004 63.2886 39.1635 63.4827C39.2266 63.6769 39.3297 63.8557 39.466 64.0076C39.6024 64.1596 39.769 64.2813 39.9552 64.365C40.1414 64.4487 40.3431 64.4925 40.5472 64.4936H55.6366Z" fill="white"/>
</mask>
<g mask="url(#mask17_618_1589)">
<path d="M39.6491 58.6665C39.1013 62.8803 52.7931 60.4684 51.5756 61.8173C50.3581 63.1663 47.3664 64.4936 47.3664 64.4936L37.791 63.5168L39.0944 59.9535" fill="#1A1919"/>
</g>
<path d="M55.6366 64.4936L42.5701 56.916C42.3941 56.8143 42.1987 56.7506 41.9965 56.7291C41.7944 56.7075 41.59 56.7286 41.3965 56.791C41.203 56.8533 41.0247 56.9555 40.8732 57.091C40.7216 57.2265 40.6002 57.3923 40.5167 57.5777C39.7538 59.2545 39.2749 61.0464 39.0995 62.8803C39.0786 63.0834 39.1004 63.2886 39.1635 63.4827C39.2266 63.6769 39.3297 63.8557 39.466 64.0076C39.6024 64.1596 39.769 64.2813 39.9552 64.365C40.1414 64.4487 40.3431 64.4925 40.5472 64.4936H55.6366Z" stroke="#020000" stroke-width="0.367612" stroke-linecap="round" stroke-linejoin="round"/>
<path d="M55.6379 69.7975C58.5542 69.7975 60.9183 67.4229 60.9183 64.4936C60.9183 61.5643 58.5542 59.1897 55.6379 59.1897C52.7216 59.1897 50.3574 61.5643 50.3574 64.4936C50.3574 67.4229 52.7216 69.7975 55.6379 69.7975Z" fill="#F1AF4A" stroke="#020000" stroke-width="0.367612" stroke-linecap="round" stroke-linejoin="round"/>
<path d="M33.8516 67.4436H77.4194V91.4526C77.4194 92.377 77.0521 93.2636 76.3984 93.9173C75.7448 94.571 74.8582 94.9382 73.9337 94.9382H37.3372C36.4127 94.9382 35.5262 94.571 34.8725 93.9173C34.2188 93.2636 33.8516 92.377 33.8516 91.4526V67.4436Z" fill="white"/>
<mask id="mask18_618_1589" style="mask-type:luminance" maskUnits="userSpaceOnUse" x="33" y="67" width="45" height="28">
<path d="M33.8555 67.4436H77.4233V91.4526C77.4233 92.377 77.056 93.2636 76.4023 93.9173C75.7487 94.571 74.8621 94.9382 73.9376 94.9382H37.3411C36.4166 94.9382 35.5301 94.571 34.8764 93.9173C34.2227 93.2636 33.8555 92.377 33.8555 91.4526V67.4436Z" fill="white"/>
</mask>
<g mask="url(#mask18_618_1589)">
<path d="M67.9059 62.3903L17.9095 88.3881L15.791 84.2777L65.7874 58.2799L67.9059 62.3903Z" fill="white" stroke="#020000" stroke-width="0.367612" stroke-linecap="round" stroke-linejoin="round"/>
<path d="M74.7477 68.604L24.7513 94.6018L22.6328 90.4914L72.6292 64.4936L74.7477 68.604Z" fill="white" stroke="#020000" stroke-width="0.367612" stroke-linecap="round" stroke-linejoin="round"/>
<path d="M82.3688 73.9079L32.3724 99.9057L30.2539 95.7953L80.2503 69.7975L82.3688 73.9079Z" fill="white" stroke="#020000" stroke-width="0.367612" stroke-linecap="round" stroke-linejoin="round"/>
<path d="M90.6305 78.1353L40.6341 104.133L38.5156 100.023L88.512 74.0249L90.6305 78.1353Z" fill="white" stroke="#020000" stroke-width="0.367612" stroke-linecap="round" stroke-linejoin="round"/>
<path d="M96.4508 83.9945L46.4544 109.992L44.3359 105.882L94.3323 79.8842L96.4508 83.9945Z" fill="white" stroke="#020000" stroke-width="0.367612" stroke-linecap="round" stroke-linejoin="round"/>
</g>
<path d="M33.8516 67.4436H77.4194V91.4526C77.4194 92.377 77.0521 93.2636 76.3984 93.9173C75.7448 94.571 74.8582 94.9382 73.9337 94.9382H37.3372C36.4127 94.9382 35.5262 94.571 34.8725 93.9173C34.2188 93.2636 33.8516 92.377 33.8516 91.4526V67.4436Z" stroke="#020000" stroke-width="0.367612" stroke-linecap="round" stroke-linejoin="round"/>
<path d="M78.807 61.8155H32.4665C31.4592 61.8155 30.6426 62.6321 30.6426 63.6394V69.4348C30.6426 70.4421 31.4592 71.2587 32.4665 71.2587H78.807C79.8143 71.2587 80.6309 70.4421 80.6309 69.4348V63.6394C80.6309 62.6321 79.8143 61.8155 78.807 61.8155Z" fill="white"/>
<path d="M78.807 61.8155H32.4665C31.4592 61.8155 30.6426 62.6321 30.6426 63.6394V69.4348C30.6426 70.4421 31.4592 71.2587 32.4665 71.2587H78.807C79.8143 71.2587 80.6309 70.4421 80.6309 69.4348V63.6394C80.6309 62.6321 79.8143 61.8155 78.807 61.8155Z" stroke="#020000" stroke-width="0.367612" stroke-linecap="round" stroke-linejoin="round"/>
<path d="M61.5455 61.6458H49.7305V94.9382H61.5455V61.6458Z" fill="#F1AF4A"/>
<mask id="mask19_618_1589" style="mask-type:luminance" maskUnits="userSpaceOnUse" x="49" y="73" width="13" height="22">
<path d="M61.5435 73.6335H49.7285V94.9382H61.5435V73.6335Z" fill="white"/>
</mask>
<g mask="url(#mask19_618_1589)">
<path d="M61.8205 76.4478C61.5465 94.9382 47.0027 91.7701 49.7315 94.9382C52.4603 98.1064 57.6995 99.3609 57.6995 99.3609L65.5493 99.1242L66.246 85.6039" fill="#1A1919"/>
</g>
<path d="M61.5455 61.6458H49.7305V94.9382H61.5455V61.6458Z" stroke="#020000" stroke-width="0.367612" stroke-linecap="round" stroke-linejoin="round"/>
<path d="M43.004 63.869C42.046 64.8056 40.9041 65.5332 39.6504 66.0058M57.6749 85.8832C56.6147 86.8195 55.4241 87.5968 54.1404 88.1909M72.8733 63.5168L72.5199 64.2269M54.1265 66.0168L52.8772 67.4259M65.0522 54.0956L64.8755 54.2731" stroke="#020000" stroke-width="0.367612" stroke-linecap="round" stroke-linejoin="round"/>
</g>
<defs>
<clipPath id="clip0_618_1589">
<rect width="211" height="161.199" fill="white" transform="translate(0 -5)"/>
</clipPath>
<clipPath id="clip1_618_1589">
<rect width="13.1056" height="13.1056" fill="white" transform="translate(135.52 15.358)"/>
</clipPath>
<clipPath id="clip2_618_1589">
<rect width="13.1056" height="13.1056" fill="white" transform="translate(178.52 15.358)"/>
</clipPath>
<clipPath id="clip3_618_1589">
<rect width="20.9689" height="20.9689" fill="white" transform="translate(190.031 19.9006)"/>
</clipPath>
</defs>
</svg>
