<svg width="24" height="24" viewBox="0 0 24 24" fill="none" xmlns="http://www.w3.org/2000/svg">
<g clip-path="url(#clip0_61_1156)">
<path d="M11.968 23.22C14.3207 23.22 16.228 22.0096 16.228 20.5165C16.228 19.0233 14.3207 17.8129 11.968 17.8129C9.61527 17.8129 7.70801 19.0233 7.70801 20.5165C7.70801 22.0096 9.61527 23.22 11.968 23.22Z" fill="#F3F2F7"/>
<path d="M11.9687 23.3965C9.52281 23.3965 7.53223 22.1047 7.53223 20.5165C7.53223 18.9282 9.52281 17.6365 11.9687 17.6365C14.4146 17.6365 16.4052 18.9282 16.4052 20.5165C16.4052 22.1047 14.4146 23.3965 11.9687 23.3965ZM11.9687 17.9894C9.71693 17.9894 7.88517 19.1224 7.88517 20.5165C7.88517 21.9106 9.71693 23.0435 11.9687 23.0435C14.2205 23.0435 16.0522 21.9106 16.0522 20.5165C16.0522 19.1224 14.2205 17.9894 11.9687 17.9894Z" fill="#1C1D22" fill-opacity="0.5"/>
<path d="M14.1986 2.82706V3.31059C13.521 3.12 12.801 3.0247 12.0598 3.03529C11.3821 3.04235 10.7257 3.14118 10.1045 3.31765V2.82706C10.1045 1.69412 11.0257 0.779999 12.1551 0.779999C12.7198 0.779999 13.228 1.00941 13.6021 1.38C13.9692 1.75059 14.1986 2.25882 14.1986 2.82706Z" fill="#F3F2F7"/>
<path d="M10.1042 3.49413C10.0654 3.49413 10.0301 3.48355 9.99832 3.45884C9.95597 3.42708 9.92773 3.37413 9.92773 3.31766V2.82708C9.92773 1.60237 10.9266 0.603546 12.1548 0.603546C12.7442 0.603546 13.3019 0.836487 13.7254 1.25296C14.1454 1.67649 14.3748 2.23413 14.3748 2.82708V3.31061C14.3748 3.36708 14.3501 3.41649 14.3042 3.45178C14.2619 3.48708 14.2019 3.49766 14.1489 3.48002C13.4783 3.29296 12.783 3.20119 12.0595 3.21178C11.4136 3.21884 10.7713 3.31061 10.1501 3.48708C10.136 3.49061 10.1183 3.49413 10.1042 3.49413ZM12.1548 0.956487C11.1207 0.956487 10.2807 1.79649 10.2807 2.82708V3.08825C10.8595 2.94355 11.456 2.8659 12.0595 2.85884C12.7195 2.84825 13.3901 2.9259 14.0219 3.08119V2.82708C14.0219 2.32943 13.8277 1.86002 13.4783 1.50355C13.1183 1.15061 12.6489 0.956487 12.1548 0.956487Z" fill="#1C1D22" fill-opacity="0.5"/>
<path d="M1.29205 7.65175C1.03794 7.65175 0.812053 7.46822 0.7697 7.20704C0.346171 4.6094 2.11441 2.15293 4.71205 1.7294C5.00146 1.68352 5.27323 1.87763 5.31911 2.16704C5.36499 2.45646 5.17088 2.72822 4.88146 2.7741C3.90382 2.93293 3.04617 3.46587 2.46735 4.27057C1.88852 5.07528 1.65558 6.05999 1.81441 7.0341C1.86029 7.32352 1.66617 7.59528 1.37676 7.64116C1.34852 7.64822 1.32029 7.65175 1.29205 7.65175Z" fill="#A3A3A3"/>
<path d="M1.29183 7.82824C0.945945 7.82824 0.653004 7.57765 0.596533 7.23529C0.384768 5.93294 0.691827 4.62353 1.46477 3.55059C2.23771 2.47765 3.38124 1.76824 4.68359 1.55647C4.87065 1.52471 5.05418 1.57059 5.20947 1.68C5.36124 1.78941 5.46359 1.95529 5.49536 2.13882C5.52712 2.32588 5.48124 2.51294 5.37183 2.66471C5.26242 2.81647 5.10006 2.91882 4.913 2.95059C3.98124 3.10235 3.16594 3.60706 2.61536 4.37647C2.06124 5.14588 1.84242 6.07765 1.99418 7.00941C2.02594 7.19647 1.98006 7.38353 1.87065 7.53529C1.76124 7.68706 1.59889 7.78941 1.41183 7.82118C1.36947 7.82471 1.33065 7.82824 1.29183 7.82824ZM4.80006 1.89882C4.78242 1.89882 4.76124 1.89882 4.74359 1.90235C3.533 2.10353 2.47065 2.76 1.75065 3.75882C1.03065 4.75765 0.744768 5.97177 0.942415 7.17882C0.97418 7.36941 1.15065 7.50353 1.3483 7.47177C1.44359 7.45765 1.52477 7.40471 1.57771 7.33059C1.63418 7.25294 1.65536 7.16118 1.63771 7.06588C1.47183 6.04235 1.71183 5.01529 2.32242 4.16824C2.92947 3.32471 3.82947 2.76706 4.853 2.60118C4.94477 2.58706 5.02947 2.53412 5.08242 2.46C5.13889 2.38235 5.16006 2.29059 5.14242 2.19882C5.1283 2.10706 5.07536 2.02235 5.00124 1.96941C4.94124 1.92353 4.87065 1.89882 4.80006 1.89882Z" fill="#1C1D22" fill-opacity="0.5"/>
<path d="M3.57487 7.25645C3.32075 7.25645 3.09487 7.07292 3.05251 6.81174C2.93957 6.11292 3.10193 5.41056 3.5184 4.8388C3.93134 4.2635 4.54546 3.88586 5.24428 3.77292C5.53369 3.72703 5.80546 3.92115 5.85134 4.21056C5.89722 4.49997 5.7031 4.77174 5.41369 4.81762C4.99369 4.88468 4.62663 5.11409 4.37957 5.45997C4.13251 5.80586 4.03369 6.22586 4.10075 6.64586C4.14663 6.93527 3.95251 7.20703 3.6631 7.25292C3.63134 7.25292 3.6031 7.25645 3.57487 7.25645Z" fill="#A3A3A3"/>
<path d="M3.57515 7.43294C3.22927 7.43294 2.93633 7.18235 2.87986 6.84C2.75986 6.09529 2.9328 5.34706 3.37397 4.73294C3.81515 4.11882 4.46809 3.71647 5.2128 3.59294C5.39633 3.56471 5.58339 3.60706 5.73868 3.71647C5.89044 3.82588 5.9928 3.98824 6.02456 4.17529C6.08809 4.56 5.82692 4.92353 5.44221 4.98706C5.06809 5.04706 4.74339 5.25176 4.52103 5.55529C4.29868 5.86235 4.21044 6.23647 4.27397 6.61059C4.30574 6.79765 4.25986 6.98471 4.15044 7.13647C4.04103 7.28823 3.87868 7.39059 3.69162 7.42235C3.6528 7.42941 3.61397 7.43294 3.57515 7.43294ZM5.32927 3.93882C5.31162 3.93882 5.29044 3.93882 5.2728 3.94235C4.61986 4.04824 4.04809 4.40118 3.66339 4.93765C3.27868 5.47412 3.12339 6.12706 3.22927 6.78C3.26103 6.97059 3.44103 7.10471 3.63515 7.07294C3.73044 7.05882 3.81162 7.00588 3.86456 6.93176C3.92103 6.85412 3.94221 6.76235 3.92456 6.67059C3.85044 6.20471 3.95986 5.73529 4.23515 5.35412C4.51044 4.96941 4.91986 4.71882 5.38574 4.64118C5.57633 4.60941 5.70691 4.42941 5.67868 4.23529C5.66456 4.14353 5.61162 4.06235 5.5375 4.00588C5.47397 3.96353 5.39986 3.93882 5.32927 3.93882Z" fill="#1C1D22" fill-opacity="0.5"/>
<path d="M22.7086 7.65175C22.9627 7.65175 23.1886 7.46822 23.2309 7.20704C23.6545 4.6094 21.8862 2.15293 19.2886 1.7294C18.9992 1.68352 18.7274 1.87763 18.6815 2.16704C18.6356 2.45646 18.8298 2.72822 19.1192 2.7741C20.0968 2.93293 20.9545 3.46587 21.5333 4.27057C22.1121 5.07528 22.345 6.05999 22.1862 7.0341C22.1403 7.32352 22.3345 7.59528 22.6239 7.64116C22.6521 7.64822 22.6803 7.65175 22.7086 7.65175Z" fill="#A3A3A3"/>
<path d="M22.7085 7.82824C22.6697 7.82824 22.6309 7.82471 22.5921 7.81765C22.2074 7.75412 21.9462 7.39059 22.0097 7.00941C22.1615 6.07765 21.9391 5.14235 21.3885 4.37647C20.838 3.61059 20.0191 3.10236 19.0909 2.95059C18.7062 2.88706 18.445 2.52353 18.5085 2.13883C18.5403 1.95177 18.6391 1.78941 18.7944 1.68C18.9462 1.57059 19.1368 1.52824 19.3203 1.55647C20.6227 1.76824 21.7662 2.47765 22.5391 3.55059C23.3121 4.62353 23.6191 5.93294 23.4074 7.2353C23.3474 7.57765 23.0544 7.82824 22.7085 7.82824ZM19.2003 1.89883C19.1262 1.89883 19.0556 1.92 18.9956 1.96588C18.918 2.02236 18.8685 2.10353 18.8509 2.1953C18.8191 2.38588 18.9497 2.56941 19.1438 2.60118C20.1674 2.76706 21.0674 3.32471 21.6744 4.16824C22.2815 5.01177 22.525 6.04236 22.3591 7.06588C22.3274 7.25647 22.458 7.44 22.6521 7.47177C22.8603 7.50353 23.0262 7.36941 23.058 7.17883C23.2556 5.96824 22.9697 4.75412 22.2497 3.75883C21.5297 2.76 20.4674 2.10353 19.2603 1.90588C19.2391 1.90236 19.2215 1.89883 19.2003 1.89883Z" fill="#1C1D22" fill-opacity="0.5"/>
<path d="M20.4248 7.25648C20.6789 7.25648 20.9048 7.07295 20.9471 6.81177C21.0601 6.11295 20.8977 5.41059 20.4813 4.83883C20.0683 4.26353 19.4542 3.88589 18.7554 3.77295C18.466 3.72706 18.1942 3.92118 18.1483 4.21059C18.1024 4.50001 18.2965 4.77177 18.586 4.81765C19.006 4.88471 19.373 5.11412 19.6201 5.46001C19.8671 5.80589 19.966 6.22589 19.8989 6.64589C19.853 6.9353 20.0471 7.20706 20.3365 7.25295C20.3683 7.25295 20.3965 7.25648 20.4248 7.25648Z" fill="#A3A3A3"/>
<path d="M20.4251 7.43295C20.3863 7.43295 20.3475 7.42942 20.3086 7.42236C19.9239 7.35883 19.6627 6.9953 19.7263 6.61413C19.7863 6.24001 19.698 5.86589 19.4792 5.55883C19.2569 5.25177 18.9322 5.0506 18.558 4.9906C18.371 4.95883 18.2086 4.86001 18.0992 4.70471C17.9898 4.55295 17.9439 4.36589 17.9757 4.17883C18.0039 3.99177 18.1063 3.82942 18.2616 3.72001C18.4133 3.6106 18.6039 3.56471 18.7875 3.59648C19.5322 3.71648 20.1851 4.12236 20.6263 4.73648C21.0675 5.3506 21.2439 6.09883 21.1204 6.84354C21.0675 7.18589 20.7745 7.43295 20.4251 7.43295ZM18.671 3.93883C18.5969 3.93883 18.5263 3.96001 18.4663 4.00589C18.3886 4.06236 18.3392 4.14354 18.3251 4.2353C18.311 4.32707 18.3322 4.42236 18.3851 4.50001C18.4416 4.57766 18.5228 4.62707 18.6145 4.64119C19.0804 4.71883 19.4898 4.96942 19.7651 5.35413C20.0404 5.73883 20.1498 6.20471 20.0757 6.6706C20.0439 6.86118 20.1745 7.04471 20.3686 7.07648C20.5769 7.11177 20.7427 6.97413 20.7745 6.78354C20.8804 6.1306 20.7286 5.47766 20.3404 4.94119C19.9557 4.40471 19.3839 4.05177 18.731 3.94589C18.7098 3.94236 18.6922 3.93883 18.671 3.93883Z" fill="#1C1D22" fill-opacity="0.5"/>
<path d="M22.2387 19.1118C22.2387 19.8318 21.681 20.52 20.8375 20.52H3.46574C2.21986 20.52 1.59515 19.0094 2.48103 18.1306C3.10221 17.513 3.58927 16.7788 3.92103 15.9847C4.2528 15.1871 4.42927 14.3259 4.42927 13.4471V10.9588C4.42927 7.37296 6.81162 4.24943 10.1046 3.31766C10.7257 3.14119 11.3822 3.04237 12.0599 3.03531C12.801 3.02472 13.521 3.12002 14.1987 3.3106C15.5081 3.66355 16.6799 4.35884 17.6116 5.29766C19.0128 6.69531 19.8775 8.62237 19.8775 10.7541V13.4471C19.8775 15.2047 20.5763 16.8918 21.8222 18.1306C22.1081 18.4165 22.2387 18.7694 22.2387 19.1118Z" fill="#A3A3A3"/>
<path d="M20.8374 20.6965H3.46567C2.81625 20.6965 2.25861 20.3224 2.01155 19.7224C1.76449 19.1224 1.89508 18.4659 2.35743 18.0071C2.95743 17.4106 3.43037 16.7082 3.75861 15.9177C4.08684 15.1271 4.25272 14.2976 4.25272 13.4471V10.9588C4.25272 7.32706 6.63861 4.1153 10.0551 3.14824C10.7045 2.96471 11.3786 2.86589 12.0563 2.85883C12.8045 2.84824 13.5421 2.94353 14.2445 3.14118C15.561 3.49412 16.768 4.2 17.7351 5.17412C19.228 6.66353 20.0539 8.64706 20.0539 10.7541V13.4471C20.0539 15.1482 20.7421 16.8106 21.9457 18.0071C22.2492 18.3106 22.4151 18.7024 22.4151 19.1118C22.4151 19.8882 21.8221 20.6965 20.8374 20.6965ZM12.1692 3.20824C12.1339 3.20824 12.0986 3.20824 12.0598 3.20824C11.4139 3.2153 10.7715 3.30706 10.1504 3.48353C6.88567 4.41177 4.60567 7.48236 4.60567 10.9588V13.4471C4.60567 14.3435 4.42919 15.2188 4.08331 16.0518C3.7339 16.8847 3.23625 17.6259 2.60449 18.2541C2.24802 18.6106 2.14214 19.1188 2.33625 19.5847C2.52684 20.0506 2.96096 20.34 3.46567 20.34H20.8374C21.6033 20.34 22.0621 19.7153 22.0621 19.1082C22.0621 18.7906 21.9315 18.4871 21.6986 18.2506C20.4315 16.9906 19.701 15.2365 19.701 13.4435V10.7506C19.701 8.7353 18.9139 6.84353 17.488 5.41765C16.5633 4.48589 15.4092 3.8153 14.1527 3.47647C13.5139 3.3 12.8468 3.20824 12.1692 3.20824Z" fill="#1C1D22" fill-opacity="0.5"/>
<path d="M5.84151 11.1353C5.74269 11.1353 5.66504 11.0577 5.66504 10.9588C5.66504 7.9553 7.62739 5.30118 10.4403 4.50706C10.5321 4.47883 10.6309 4.5353 10.6592 4.62706C10.6874 4.72236 10.6309 4.81765 10.5356 4.84589C7.87445 5.59765 6.01798 8.11412 6.01798 10.9588C6.01798 11.0541 5.9368 11.1353 5.84151 11.1353Z" fill="#1C1D22" fill-opacity="0.5"/>
</g>
<defs>
<clipPath id="clip0_61_1156">
<rect width="24" height="24" fill="white"/>
</clipPath>
</defs>
</svg>
