<svg width="28" height="28" viewBox="0 0 28 28" fill="none" xmlns="http://www.w3.org/2000/svg">
<g clip-path="url(#clip0_192_480)">
<path fill-rule="evenodd" clip-rule="evenodd" d="M14 0C10.287 0 6.72601 1.475 4.1005 4.1005C1.475 6.72601 0 10.287 0 14C0 17.713 1.475 21.274 4.1005 23.8995C6.72601 26.525 10.287 28 14 28C17.713 28 21.274 26.525 23.8995 23.8995C26.525 21.274 28 17.713 28 14C28 10.287 26.525 6.72601 23.8995 4.1005C21.274 1.475 17.713 0 14 0ZM14.7017 5.82517C14.7892 5.82517 14.8762 5.85142 14.9584 5.90392C15.1206 6.00775 15.2343 6.21425 15.2372 6.44525C15.2372 6.45108 15.2361 6.45108 15.2361 6.454C15.235 6.52641 15.261 6.59662 15.3089 6.65097C15.3567 6.70531 15.4231 6.7399 15.4951 6.748H15.5243C15.5604 6.748 15.5966 6.74275 15.6304 6.7305H15.6438C15.6514 6.72467 15.6584 6.7235 15.6654 6.72C15.6742 6.71417 15.6829 6.71125 15.6905 6.706C15.7314 6.67909 15.7648 6.64233 15.7877 6.59911C15.8107 6.55589 15.8224 6.50759 15.8217 6.45867L15.8206 6.44875C15.8235 6.21717 15.9373 6.01125 16.1 5.90742C16.1756 5.85588 16.2649 5.82831 16.3564 5.82831C16.4478 5.82831 16.5372 5.85588 16.6127 5.90742C16.7732 6.01067 16.8846 6.21425 16.8892 6.44292C16.8863 7.15458 16.6022 7.83883 16.0883 8.37842H11.6608C11.1469 7.83883 10.8628 7.15458 10.8599 6.44292C10.8646 6.21425 10.9772 6.01067 11.1382 5.90742C11.2198 5.85492 11.3073 5.8275 11.3948 5.8275V5.82867C11.4812 5.82867 11.5687 5.8555 11.6509 5.90858C11.8142 6.01358 11.9274 6.22125 11.9286 6.454V6.45983C11.9279 6.51215 11.9413 6.56369 11.9673 6.60905C11.9934 6.65441 12.0312 6.69193 12.0767 6.71767H12.0779C12.0948 6.72758 12.1123 6.73517 12.1304 6.741H12.1316C12.1491 6.74683 12.1678 6.7515 12.1864 6.75383H12.2459C12.2552 6.75383 12.2652 6.75383 12.2751 6.748C12.2844 6.748 12.2943 6.74217 12.3037 6.74158L12.3124 6.73575C12.3182 6.73575 12.3241 6.72875 12.3299 6.72875H12.3311C12.3398 6.72292 12.3486 6.72233 12.3573 6.71708C12.3748 6.70794 12.3912 6.69699 12.4063 6.68442H12.4075C12.4142 6.67867 12.4206 6.67264 12.4267 6.66633H12.4279C12.4552 6.63865 12.4768 6.60585 12.4914 6.56981C12.506 6.53378 12.5134 6.49522 12.5131 6.45633V6.4505C12.5131 6.39392 12.5195 6.33733 12.5323 6.28425C12.5726 6.12092 12.6677 5.98442 12.7913 5.90508C12.8669 5.85355 12.9562 5.82598 13.0477 5.82598C13.1392 5.82598 13.2285 5.85355 13.3041 5.90508C13.4674 6.01008 13.5812 6.21775 13.5829 6.45108V6.45692C13.5824 6.50903 13.5959 6.56033 13.622 6.60547C13.648 6.65061 13.6857 6.68794 13.7311 6.71358H13.7323C13.7492 6.72408 13.7667 6.73108 13.7847 6.73808H13.7859C13.8034 6.74392 13.8221 6.74858 13.8407 6.7515H13.8699C13.89 6.75236 13.91 6.75019 13.9294 6.74508C13.9387 6.74508 13.9487 6.73925 13.958 6.73808L13.9668 6.73225C13.9726 6.73225 13.9784 6.72642 13.9842 6.72642H13.9854C14.0122 6.71586 14.0371 6.7013 14.0595 6.68325H14.0612C14.0681 6.67752 14.0747 6.67149 14.0811 6.66517H14.0822C14.1097 6.63762 14.1314 6.60484 14.1461 6.56878C14.1607 6.53271 14.1679 6.49408 14.1674 6.45517V6.44933C14.1692 6.21658 14.2823 6.00892 14.4457 5.90392C14.5273 5.85142 14.6148 5.82517 14.7023 5.82517H14.7017ZM11.9939 8.9635H15.7885V9.48267H11.9939V8.9635ZM11.8597 10.066H15.8906C19.7546 13.2965 20.7503 16.2219 20.7503 18.4001V18.6532C20.7503 19.5708 20.1011 20.4377 18.9572 21.0933C17.8138 21.749 16.1992 22.1667 14.4054 22.1667H13.3438C11.5506 22.1667 9.93592 21.749 8.792 21.0933C7.64867 20.4377 7 19.5708 7 18.6532V18.4001C7 16.2219 7.99517 13.2959 11.8597 10.066ZM14.0321 12.8345C11.9379 12.8345 10.2503 14.5378 10.2503 16.625C10.2503 18.7133 11.9379 20.4167 14.0321 20.4167C16.1251 20.4167 17.8337 18.7151 17.8337 16.625C17.8338 16.5859 17.826 16.5473 17.8109 16.5112H17.8097C17.745 14.4777 16.0842 12.8357 14.0321 12.8357V12.8345ZM14.0321 13.4178C15.8101 13.4178 17.2503 14.8528 17.2503 16.625C17.2503 18.3983 15.8101 19.8333 14.0321 19.8333C13.611 19.834 13.194 19.7514 12.805 19.5903C12.416 19.4292 12.0627 19.1928 11.7654 18.8946C11.4681 18.5964 11.2328 18.2424 11.0729 17.8528C10.913 17.4633 10.8317 17.046 10.8337 16.625C10.8317 16.204 10.9131 15.7868 11.073 15.3974C11.233 15.008 11.4684 14.6541 11.7656 14.356C12.0629 14.0579 12.4162 13.8216 12.8052 13.6606C13.1941 13.4996 13.6111 13.4171 14.0321 13.4178ZM12.6076 14.6002V14.6061H12.5953V15.1894H13.1944C13.7392 15.1894 14.014 15.4467 14.1126 15.7669H12.6076V16.3502H14.1126C14.0134 16.6699 13.7392 16.9277 13.1944 16.9277H12.5953V17.3256L12.5778 17.3431L12.5953 17.36V17.5117H12.7499L14.5477 19.2681L14.9561 18.851L13.5479 17.4761C14.1873 17.3477 14.5979 16.8735 14.7111 16.3502H15.5073V15.7669H14.7111C14.6656 15.5569 14.5687 15.3586 14.4317 15.1836H15.5073V14.6002H12.6076Z" fill="#5683BA"/>
</g>
<defs>
<clipPath id="clip0_192_480">
<rect width="28" height="28" fill="white"/>
</clipPath>
</defs>
</svg>
