<svg width="29" height="28" viewBox="0 0 29 28" fill="none" xmlns="http://www.w3.org/2000/svg">
<g clip-path="url(#clip0_192_494)">
<path d="M14.75 28.001C22.482 28.001 28.75 21.733 28.75 14.001C28.75 6.26899 22.482 0.000976562 14.75 0.000976562C7.01801 0.000976562 0.75 6.26899 0.75 14.001C0.75 21.733 7.01801 28.001 14.75 28.001Z" fill="#5683BA"/>
<path fill-rule="evenodd" clip-rule="evenodd" d="M21.7038 7.88301C21.61 7.88565 21.5182 7.91156 21.4368 7.9584L19.3422 9.16778C19.256 9.2174 19.1844 9.28878 19.1345 9.37477C19.0846 9.46077 19.0582 9.55836 19.0578 9.65778V19.5504C19.0578 19.8638 19.312 20.1179 19.6254 20.1179H21.7211C21.8716 20.1179 22.016 20.0581 22.1224 19.9517C22.2288 19.8453 22.2886 19.7009 22.2886 19.5504V8.4484C22.2884 8.37258 22.2729 8.29757 22.2432 8.22782C22.2135 8.15807 22.1701 8.09498 22.1156 8.04227C22.0611 7.98957 21.9965 7.94833 21.9258 7.92097C21.8551 7.89362 21.7796 7.88071 21.7038 7.88301ZM17.3962 10.3707C17.3023 10.3733 17.2105 10.3992 17.1291 10.4461L15.0345 11.6576C14.9485 11.7072 14.8769 11.7784 14.8271 11.8642C14.7772 11.9499 14.7507 12.0473 14.7502 12.1466V19.5504C14.7502 19.8638 15.0043 20.1179 15.3177 20.1179H17.4134C17.5639 20.1179 17.7083 20.0581 17.8147 19.9517C17.9211 19.8453 17.9809 19.7009 17.9809 19.5504V10.9372C17.9808 10.8613 17.9655 10.7861 17.9358 10.7163C17.9062 10.6464 17.8628 10.5832 17.8083 10.5303C17.7537 10.4775 17.6892 10.4362 17.6184 10.4088C17.5476 10.3813 17.472 10.3684 17.3962 10.3707ZM13.0885 12.8573C12.9946 12.86 12.9028 12.8859 12.8214 12.9327L10.7268 14.1421C10.6406 14.1917 10.569 14.2631 10.5191 14.3491C10.4692 14.4351 10.4428 14.5327 10.4425 14.6321V19.5504C10.4425 19.8638 10.6966 20.1179 11.01 20.1179H13.1057C13.2562 20.1179 13.4006 20.0581 13.507 19.9517C13.6134 19.8453 13.6732 19.7009 13.6732 19.5504V13.4227C13.673 13.3469 13.6575 13.2719 13.6278 13.2021C13.5981 13.1324 13.5547 13.0693 13.5002 13.0166C13.4457 12.9639 13.3812 12.9226 13.3104 12.8953C13.2397 12.8679 13.1642 12.855 13.0885 12.8573ZM8.78077 15.345C8.68687 15.3476 8.59509 15.3735 8.51369 15.4204L6.41907 16.6309C6.33292 16.6805 6.26131 16.7519 6.21141 16.8378C6.16151 16.9238 6.13508 17.0214 6.13477 17.1209V19.5504C6.13477 19.8638 6.38892 20.1179 6.7023 20.1179H8.798C8.94852 20.1179 9.09287 20.0581 9.19931 19.9517C9.30574 19.8453 9.36554 19.7009 9.36554 19.5504V15.9104C9.36528 15.8346 9.34984 15.7596 9.32012 15.6898C9.2904 15.6201 9.247 15.557 9.19249 15.5043C9.13798 15.4516 9.07346 15.4103 9.00275 15.383C8.93203 15.3556 8.85655 15.3427 8.78077 15.345Z" fill="#FDFDFD"/>
</g>
<defs>
<clipPath id="clip0_192_494">
<rect width="28" height="28" fill="white" transform="translate(0.75)"/>
</clipPath>
</defs>
</svg>
