<svg width="29" height="28" viewBox="0 0 29 28" fill="none" xmlns="http://www.w3.org/2000/svg">
<g clip-path="url(#clip0_192_486)">
<path fill-rule="evenodd" clip-rule="evenodd" d="M14.25 0C10.537 0 6.97601 1.475 4.3505 4.1005C1.725 6.72601 0.25 10.287 0.25 14C0.25 17.713 1.725 21.274 4.3505 23.8995C6.97601 26.525 10.537 28 14.25 28C17.963 28 21.524 26.525 24.1495 23.8995C26.775 21.274 28.25 17.713 28.25 14C28.25 10.287 26.775 6.72601 24.1495 4.1005C21.524 1.475 17.963 0 14.25 0ZM12.7118 5.25H15.7882C15.8656 5.25 15.9398 5.28073 15.9945 5.33543C16.0492 5.39012 16.0799 5.46431 16.0799 5.54167V7.07C16.703 7.23422 17.3012 7.48143 17.8585 7.805L18.9377 6.72642C18.9923 6.67192 19.0664 6.64131 19.1436 6.64131C19.2208 6.64131 19.2948 6.67192 19.3495 6.72642L21.5236 8.90167C21.5783 8.95636 21.609 9.03053 21.609 9.10787C21.609 9.18521 21.5783 9.25939 21.5236 9.31408L20.4468 10.3903C20.7693 10.9503 21.0149 11.5465 21.1782 12.1712H22.7083C22.7857 12.1712 22.8599 12.202 22.9146 12.2567C22.9693 12.3114 23 12.3856 23 12.4629V15.5382C23 15.6156 22.9693 15.6898 22.9146 15.7445C22.8599 15.7992 22.7857 15.8299 22.7083 15.8299H21.1817C21.0168 16.4531 20.7688 17.0513 20.4444 17.6085L21.5236 18.6877C21.5781 18.7423 21.6087 18.8164 21.6087 18.8936C21.6087 18.9708 21.5781 19.0448 21.5236 19.0995L19.3495 21.2747C19.2948 21.3294 19.2206 21.3601 19.1433 21.3601C19.066 21.3601 18.9918 21.3294 18.9371 21.2747L17.8602 20.1979C17.3014 20.5205 16.7041 20.7661 16.0799 20.9294V22.4583C16.0799 22.5357 16.0492 22.6099 15.9945 22.6646C15.9398 22.7193 15.8656 22.75 15.7882 22.75H12.7118C12.6344 22.75 12.5602 22.7193 12.5055 22.6646C12.4508 22.6099 12.4201 22.5357 12.4201 22.4583V20.9317C11.7969 20.7672 11.1987 20.5196 10.6415 20.1956L9.56233 21.2747C9.50766 21.3293 9.43361 21.3599 9.35642 21.3599C9.27922 21.3599 9.20517 21.3293 9.1505 21.2747L6.97642 19.0995C6.92174 19.0448 6.89102 18.9706 6.89102 18.8933C6.89102 18.816 6.92174 18.7418 6.97642 18.6871L8.05325 17.6102C7.73079 17.0522 7.48476 16.4534 7.32175 15.8299H5.79167C5.71431 15.8299 5.64012 15.7992 5.58543 15.7445C5.53073 15.6898 5.5 15.6156 5.5 15.5382V12.4629C5.5 12.3856 5.53073 12.3114 5.58543 12.2567C5.64012 12.202 5.71431 12.1712 5.79167 12.1712H7.31825C7.48333 11.5471 7.73125 10.9509 8.05558 10.3927L6.97642 9.3135C6.92192 9.25883 6.89131 9.18478 6.89131 9.10758C6.89131 9.03039 6.92192 8.95634 6.97642 8.90167L9.1505 6.72642C9.2052 6.67174 9.27937 6.64102 9.35671 6.64102C9.43405 6.64102 9.50822 6.67174 9.56292 6.72642L10.6398 7.80208C11.1978 7.48002 11.7966 7.23438 12.4201 7.07175V5.54167C12.4201 5.46431 12.4508 5.39012 12.5055 5.33543C12.5602 5.28073 12.6344 5.25 12.7118 5.25ZM13.0034 5.83333V7.26308C13.0034 7.32931 12.9809 7.39358 12.9396 7.44532C12.8982 7.49705 12.8405 7.53318 12.7759 7.54775C12.0485 7.71108 11.3537 7.99692 10.7214 8.39125C10.6656 8.42601 10.5997 8.44089 10.5344 8.43348C10.469 8.42606 10.4081 8.39679 10.3615 8.35042L9.35642 7.34533L7.59475 9.10758L8.60217 10.115C8.64883 10.1617 8.67827 10.2228 8.68569 10.2884C8.6931 10.354 8.67805 10.4202 8.643 10.4761C8.24697 11.1072 7.96023 11.8006 7.79483 12.5271C7.78024 12.5918 7.74403 12.6496 7.69217 12.6909C7.64032 12.7323 7.57591 12.7547 7.50958 12.7546H6.08333V15.2466H7.51308C7.57911 15.2468 7.64311 15.2694 7.69461 15.3108C7.7461 15.3521 7.78206 15.4097 7.79658 15.4741C7.95992 16.2015 8.24575 16.8962 8.64008 17.5286C8.67514 17.5845 8.69019 17.6507 8.68277 17.7163C8.67535 17.7818 8.64591 17.843 8.59925 17.8897L7.59533 18.893L9.357 20.6558L10.3638 19.649C10.4106 19.6021 10.472 19.5724 10.5378 19.565C10.6036 19.5576 10.67 19.5728 10.7261 19.6082C11.3572 20.0042 12.0503 20.2907 12.7771 20.4563C12.8414 20.4711 12.8988 20.5072 12.9399 20.5588C12.981 20.6104 13.0034 20.6744 13.0034 20.7404V22.1667H15.4966V20.7375C15.4967 20.6714 15.5193 20.6072 15.5606 20.5556C15.6019 20.504 15.6596 20.468 15.7241 20.4534C16.4515 20.2898 17.1461 20.0046 17.7786 19.6099C17.8344 19.5752 17.9003 19.5603 17.9656 19.5677C18.031 19.5751 18.0919 19.6044 18.1385 19.6507L19.1436 20.6558L20.9052 18.8936L19.8978 17.8862C19.8512 17.8395 19.8217 17.7783 19.8143 17.7128C19.8069 17.6472 19.8219 17.581 19.857 17.5251C20.253 16.8936 20.5398 16.1998 20.7052 15.4729C20.72 15.4084 20.7563 15.3509 20.8081 15.3098C20.86 15.2686 20.9242 15.2464 20.9904 15.2466H22.4167V12.7546H20.9869C20.9209 12.7544 20.8569 12.7317 20.8054 12.6904C20.7539 12.6491 20.7179 12.5915 20.7034 12.5271C20.5398 11.7997 20.2546 11.1051 19.8599 10.4726C19.8249 10.4167 19.8098 10.3505 19.8172 10.2849C19.8246 10.2193 19.8541 10.1582 19.9007 10.1115L20.9047 9.10817L19.143 7.34533L18.1362 8.35217C18.0894 8.39911 18.028 8.42873 17.9622 8.43615C17.8964 8.44357 17.83 8.42835 17.7739 8.393C17.1428 7.99696 16.4494 7.71022 15.7229 7.54483C15.6584 7.53001 15.6009 7.4937 15.5598 7.44187C15.5186 7.39003 15.4964 7.32575 15.4966 7.25958V5.83333H13.0034ZM14.25 9.33333C16.8237 9.33333 18.9167 11.4263 18.9167 14C18.9167 16.5737 16.8237 18.6667 14.25 18.6667C11.6763 18.6667 9.58333 16.5737 9.58333 14C9.58333 11.4263 11.6763 9.33333 14.25 9.33333ZM14.25 9.91667C11.9913 9.91667 10.1667 11.7413 10.1667 14C10.1667 16.2587 11.9913 18.0833 14.25 18.0833C16.5087 18.0833 18.3333 16.2587 18.3333 14C18.3333 11.7413 16.5087 9.91667 14.25 9.91667ZM12.8074 11.6667H15.7066V12.25H14.6292C14.7662 12.425 14.8642 12.6233 14.9092 12.8333H15.706V13.4167H14.9097C14.7977 13.9364 14.3918 14.4072 13.7588 14.5402L15.1559 15.9186L14.7458 16.3333L12.9661 14.5787H12.794V13.9953H13.3931C13.9385 13.9953 14.2127 13.7369 14.3112 13.4167H12.8074V12.8333H14.3112C14.2121 12.5131 13.9379 12.2558 13.3931 12.2558H12.794V11.6725H12.8074V11.6667Z" fill="#5683BA"/>
</g>
<defs>
<clipPath id="clip0_192_486">
<rect width="28" height="28" fill="white" transform="translate(0.25)"/>
</clipPath>
</defs>
</svg>
