<svg width="28" height="28" viewBox="0 0 28 28" fill="none" xmlns="http://www.w3.org/2000/svg">
<rect width="28" height="28" rx="12" fill="#5683BA"/>
<path d="M23.3594 8.71094C20.1641 8.71094 18.3906 9.52735 18.3164 9.5625C18.2109 9.61328 18.1328 9.70313 18.0977 9.81641C18.0703 9.91406 18.0781 10.0195 18.1211 10.1094C17.5078 9.875 16.6484 9.53906 15.7891 9.15235C14.3203 8.4961 13.375 8.69531 12.3242 9.52344H9.07031C9.08594 9.39453 9.10156 9.26953 9.11328 9.15235C9.125 9.02735 9.07812 8.90625 8.98828 8.82032C8.29297 8.16016 5.50391 7.94532 4.66406 7.89844C4.54688 7.89453 4.44141 7.92969 4.35937 8.00781C4.27734 8.08594 4.23047 8.19141 4.23047 8.30469V15.6289C4.23047 15.8555 4.41406 16.0352 4.63672 16.0352H7.07812C7.25391 16.0352 7.41016 15.9219 7.46484 15.7539C7.47266 15.7305 7.50781 15.625 7.55859 15.457C7.65234 15.5508 7.75391 15.6602 7.85938 15.7695C8.22266 16.1484 8.59766 16.543 8.85156 16.7539C10.3672 18.0234 12.1875 19.3906 12.5508 19.6289C12.8516 19.8242 13.4961 20.1016 13.9961 20.1016C14.3984 20.1016 14.707 20.0078 14.918 19.8281C15.2031 19.9414 15.5313 19.9414 15.8438 19.8164C16.2148 19.6719 16.5195 19.3828 16.6914 19.0352C17.0117 19.1055 17.3789 19.0547 17.7109 18.8867C18.0391 18.7227 18.2734 18.4727 18.3906 18.1758C18.7148 18.1914 19.0469 18.0781 19.3242 17.8398C19.6953 17.5234 19.8516 17.0625 19.7656 16.6055L20.4102 16.1719C20.457 16.3164 20.4922 16.4414 20.5195 16.5391C20.5703 16.7148 20.7305 16.8359 20.9102 16.8359H23.3516C23.5781 16.8359 23.7578 16.6523 23.7578 16.4297V9.11719C23.7656 8.89063 23.582 8.71094 23.3594 8.71094ZM6.78516 15.2188H5.04688V8.73828C6.35547 8.83985 7.76562 9.06641 8.27734 9.31641C8.0625 11.0977 7.08984 14.2656 6.78516 15.2188ZM18.8008 17.2305C18.6445 17.3633 18.4375 17.4102 18.3164 17.3398C18.0117 17.0977 16.7227 15.7773 15.9219 14.9414C15.7656 14.7773 15.5078 14.7734 15.3477 14.9297C15.1836 15.0859 15.1797 15.3438 15.3359 15.5039C15.5234 15.6992 17.0469 17.2852 17.6562 17.8438C17.6094 18.0195 17.4375 18.125 17.3555 18.168C17.0977 18.3008 16.8242 18.2773 16.7227 18.1836C16.7148 18.1758 16.707 18.168 16.6992 18.1602C16.2109 17.7695 14.9883 16.4688 14.7109 16.168C14.5586 16.0039 14.3008 15.9922 14.1367 16.1445C13.9727 16.2969 13.9609 16.5547 14.1133 16.7188C14.125 16.7344 15.3203 18.0234 15.9961 18.6289C15.918 18.8203 15.7578 18.9883 15.5625 19.0664C15.4375 19.1133 15.2578 19.1406 15.0938 18.9922C15.0898 18.9883 15.0859 18.9844 15.082 18.9805C14.5 18.4922 13.3164 17.2266 13.082 16.9805C12.9297 16.8164 12.6719 16.8086 12.5078 16.9609C12.3438 17.1133 12.3359 17.3711 12.4883 17.5352C12.7617 17.8281 13.5859 18.6992 14.1992 19.2813C14.1484 19.2891 14.082 19.293 14.0039 19.293C13.7344 19.293 13.2461 19.1094 13.0078 18.9531C12.7227 18.7656 10.9297 17.4297 9.38281 16.1328C9.16406 15.9492 8.78906 15.5586 8.45703 15.2109C8.21484 14.957 7.98828 14.7227 7.83984 14.582C8.17969 13.4609 8.67188 11.7422 8.94141 10.3398H11.4375C10.8828 10.8984 10.1328 12.0195 10.3281 12.8398C10.4102 13.1914 10.6602 13.4531 11.0273 13.5742C11.9492 13.8789 12.7891 13.5859 13.418 12.7539C13.6758 12.7148 13.8164 12.6563 14.0273 12.5586C14.1055 12.5234 14.1914 12.4844 14.3125 12.4375C14.7773 12.875 15.4062 13.3828 16.0664 13.918C17.2617 14.8867 18.6211 15.9844 18.9258 16.6172C19.0742 16.9297 18.9102 17.1367 18.8008 17.2305Z" fill="#FDFDFD"/>
</svg>
