<svg width="29" height="28" viewBox="0 0 29 28" fill="none" xmlns="http://www.w3.org/2000/svg">
<g clip-path="url(#clip0_192_499)">
<path d="M14.5 28C22.232 28 28.5 21.732 28.5 14C28.5 6.26801 22.232 0 14.5 0C6.76801 0 0.5 6.26801 0.5 14C0.5 21.732 6.76801 28 14.5 28Z" fill="#5683BA"/>
<path d="M14.492 6.493C14.4597 6.49388 14.4275 6.4979 14.396 6.505C10.308 6.56 7 9.898 7 13.999C7 18.114 10.33 21.461 14.438 21.495C14.4503 21.4968 14.4626 21.4981 14.475 21.499H14.502C16.135 21.575 17.504 21.119 18.717 20.237C20.72 18.895 22 16.607 22 14L21.998 13.95C21.998 13.9477 21.998 13.9453 21.998 13.943C21.968 9.868 18.673 6.562 14.604 6.506C14.5672 6.49779 14.5297 6.49276 14.492 6.493ZM14 7.524V20.473C12.3677 20.3501 10.8422 19.6147 9.72947 18.4142C8.6167 17.2137 7.99891 15.6369 8 14C8 10.573 10.64 7.779 14 7.524ZM15 7.524C15.232 7.542 15.461 7.569 15.686 7.61L15 8.126V7.524ZM16.703 7.888C17.127 8.04 17.529 8.235 17.906 8.468L15 11.01V9.505L16.703 7.888ZM18.621 8.97C18.875 9.178 19.108 9.41 19.328 9.655L15.324 13.5H15V12.308L18.621 8.97ZM19.904 10.386C20.107 10.688 20.282 11.009 20.432 11.345L18.139 13.499H16.715L19.905 10.386H19.904ZM20.771 12.307C20.875 12.692 20.944 13.09 20.975 13.499H19.527L20.771 12.307ZM15.691 14.499H20.904C20.8077 15.8813 20.2655 17.195 19.359 18.243L15.691 14.499ZM15 15.223L18.639 18.936C18.4235 19.1241 18.1964 19.2984 17.959 19.458C17.0628 20.0057 16.0478 20.3292 15 20.401V15.223Z" fill="#FDFDFD"/>
</g>
<defs>
<clipPath id="clip0_192_499">
<rect width="28" height="28" fill="white" transform="translate(0.5)"/>
</clipPath>
</defs>
</svg>
