<svg width="422" height="213" viewBox="0 0 422 213" fill="none" xmlns="http://www.w3.org/2000/svg">
<g clip-path="url(#clip0_46_1458)">
<g clip-path="url(#clip1_46_1458)">
<mask id="mask0_46_1458" style="mask-type:luminance" maskUnits="userSpaceOnUse" x="49" y="7" width="309" height="285">
<path d="M49 173.298C49 251.956 118.04 291.855 203.207 291.855C288.374 291.855 357.414 251.956 357.414 173.298C357.414 94.6393 320.192 7 203.207 7C84.2875 7 49 94.6377 49 173.298Z" fill="white"/>
</mask>
<g mask="url(#mask0_46_1458)">
<path d="M387.495 -6.99805H47V219.998H387.495V-6.99805Z" fill="#1C1D22" fill-opacity="0.1"/>
<path d="M147.614 142.078C147.294 142.078 146.977 142.015 146.682 141.893C146.387 141.77 146.119 141.591 145.893 141.365C145.667 141.138 145.488 140.87 145.366 140.574C145.244 140.279 145.181 139.962 145.182 139.642V136.578C145.182 135.933 145.438 135.315 145.894 134.859C146.35 134.402 146.969 134.146 147.614 134.146H286.884C287.529 134.146 288.148 134.402 288.604 134.859C289.06 135.315 289.316 135.933 289.316 136.578V139.642C289.316 140.287 289.06 140.906 288.604 141.362C288.148 141.818 287.529 142.075 286.884 142.075H285.969L281.948 219.995H152.548L148.528 142.075L147.614 142.078Z" fill="#5683BA"/>
<path d="M147.613 133.582H286.884C287.679 133.583 288.441 133.899 289.004 134.462C289.566 135.024 289.882 135.787 289.883 136.582V139.643C289.882 140.438 289.565 141.2 289.003 141.762C288.441 142.325 287.679 142.641 286.884 142.643H174.287C174.137 142.643 173.992 142.583 173.886 142.476C173.779 142.37 173.719 142.225 173.719 142.075C173.719 141.924 173.779 141.779 173.886 141.673C173.992 141.566 174.137 141.507 174.287 141.507H286.884C287.378 141.506 287.852 141.309 288.201 140.96C288.551 140.61 288.747 140.137 288.748 139.643V136.578C288.748 136.084 288.551 135.61 288.201 135.261C287.852 134.911 287.378 134.715 286.884 134.714H147.613C147.368 134.714 147.126 134.763 146.899 134.857C146.673 134.951 146.467 135.088 146.294 135.262C146.121 135.435 145.984 135.641 145.89 135.868C145.797 136.094 145.749 136.337 145.749 136.582V139.643C145.75 140.137 145.946 140.611 146.296 140.96C146.645 141.31 147.119 141.506 147.613 141.507H170.144C170.295 141.507 170.439 141.566 170.546 141.673C170.652 141.779 170.712 141.924 170.712 142.075C170.712 142.225 170.652 142.37 170.546 142.476C170.439 142.583 170.295 142.643 170.144 142.643H147.613C146.818 142.642 146.055 142.325 145.493 141.763C144.931 141.2 144.614 140.438 144.613 139.643V136.578C144.615 135.784 144.932 135.022 145.494 134.46C146.056 133.898 146.819 133.583 147.613 133.582ZM148.619 143.831C148.693 143.827 148.768 143.837 148.838 143.862C148.909 143.887 148.974 143.925 149.029 143.975C149.084 144.025 149.129 144.086 149.161 144.153C149.193 144.221 149.211 144.294 149.214 144.369L153.116 220.005H151.98L148.08 144.428C148.073 144.277 148.125 144.13 148.226 144.018C148.327 143.907 148.468 143.839 148.619 143.831Z" fill="#1A1919"/>
<path d="M285.998 141.512C286.148 141.52 286.289 141.587 286.39 141.699C286.49 141.81 286.542 141.958 286.535 142.108L282.516 219.999H281.38L285.401 142.049C285.41 141.899 285.477 141.758 285.589 141.658C285.701 141.557 285.847 141.505 285.998 141.512ZM237.697 174.119C237.388 174.003 237 174.076 236.397 174.366C234.51 175.266 229.096 179.279 228.875 179.942C228.865 179.97 228.858 179.999 228.854 180.028C228.797 180.365 228.936 180.616 230.059 182.443C231.235 184.36 233.097 187.391 234.586 190.666C231.865 193.22 229.492 193.007 228.591 192.795C228.936 188.638 228.36 188.306 228.107 188.161C227.981 188.091 227.838 188.059 227.694 188.069C227.551 188.08 227.414 188.133 227.3 188.221C226.438 188.837 221.066 196.868 221.361 198.637C221.758 201.217 226.179 210.009 226.971 210.268C227.072 210.301 227.18 210.305 227.283 210.28C227.386 210.256 227.48 210.203 227.555 210.129C227.566 210.119 227.575 210.108 227.585 210.098C228.246 209.325 228.53 207.271 228.631 206.289C229.698 206.102 232.507 205.569 234.829 204.795C238.39 203.563 240.004 199.901 241.359 196.252C242.091 194.281 242.943 192.895 243.627 191.778C244.743 189.959 245.549 188.643 244.81 186.591C242.874 181.122 238.667 174.51 237.697 174.119ZM236.17 202.79C235.656 203.191 235.08 203.504 234.464 203.717C231.69 204.642 228.058 205.235 228.015 205.241C227.889 205.261 227.773 205.323 227.687 205.417C227.601 205.511 227.548 205.631 227.539 205.758C227.468 206.708 227.311 207.65 227.07 208.571C225.845 206.484 222.844 200.809 222.483 198.457C222.359 197.424 226.089 191.421 227.534 189.614C227.594 190.432 227.544 191.89 227.427 193.146C227.416 193.265 227.443 193.385 227.504 193.488C227.566 193.591 227.658 193.672 227.768 193.72C227.912 193.782 231.23 195.143 235.073 191.76C236.734 195.725 237.702 199.899 236.17 202.79ZM242.66 191.183C241.949 192.341 241.066 193.783 240.294 195.855C239.641 197.617 238.928 199.381 237.961 200.819C238.844 194.58 233.49 185.859 231.026 181.845C230.643 181.222 230.25 180.581 230.067 180.244C231.187 179.19 236.165 175.466 237.304 175.216C238.149 176.033 241.87 181.69 243.742 186.972C244.296 188.512 243.715 189.461 242.66 191.183ZM215.237 195.102C214.95 194.745 214.505 194.765 212.364 194.856C210.325 194.943 207.057 195.086 203.797 194.733C203.243 190.849 204.708 188.566 205.366 187.762C208.478 189.867 209.069 189.517 209.297 189.382C209.421 189.306 209.52 189.196 209.583 189.064C209.646 188.933 209.67 188.787 209.652 188.643C209.579 187.342 206.163 178.417 204.429 177.696C201.629 176.529 193.341 176.934 192.848 177.267C192.74 177.338 192.66 177.444 192.62 177.567C192.58 177.69 192.583 177.822 192.627 177.944C192.942 178.783 194.2 180.294 194.752 180.935C194.25 182.089 192.726 185.937 192.83 189.775C192.971 193.46 195.62 196.966 195.921 197.353C197.301 199.127 197.971 200.766 198.562 202.211C199.374 204.196 200.016 205.765 202.074 206.239C204.153 206.682 206.274 206.901 208.4 206.892C211.897 206.892 214.596 206.339 215.009 206.029C215.301 205.821 215.518 205.396 215.634 204.003C215.768 202.383 215.736 195.918 215.238 195.11L215.237 195.102ZM193.975 190.013C193.968 189.92 193.963 189.828 193.959 189.734C193.846 185.528 195.905 181.12 195.931 181.075C195.978 180.975 195.994 180.864 195.978 180.754C195.963 180.645 195.915 180.542 195.842 180.459C195.201 179.742 194.604 178.986 194.054 178.196C196.14 178.021 201.83 177.841 203.998 178.744C204.984 179.19 207.922 186.182 208.445 188.239C207.781 187.954 206.587 187.233 205.611 186.553C205.505 186.479 205.377 186.444 205.248 186.453C205.119 186.462 204.997 186.514 204.902 186.601C204.779 186.712 202.006 189.325 202.638 194.589C199.048 194.058 195.648 192.838 194.127 190.185C194.087 190.117 194.034 190.059 193.97 190.013H193.975ZM214.304 205.114C213.51 205.411 207.997 206.379 202.318 205.129C200.839 204.788 200.376 203.65 199.607 201.779C199.018 200.341 198.286 198.552 196.81 196.655C195.854 195.389 195.087 193.991 194.532 192.504C198.865 196.578 207.838 196.188 212.412 195.991C213.16 195.959 213.927 195.925 214.324 195.938C214.548 197.511 214.761 204.098 214.299 205.114H214.304ZM234.901 164.232C234.038 164.016 232.241 164.524 231.342 164.81C230.656 163.632 228.53 160.315 225.414 158.488C225.369 158.385 225.293 158.298 225.198 158.238C225.103 158.178 224.992 158.148 224.879 158.152H224.795C221.989 156.796 219.282 157.263 217.818 157.516L217.554 157.56C215.315 157.909 213.757 157.697 212.503 157.527C210.835 157.3 209.516 157.122 208.17 158.706C204.369 163.198 201.683 170.465 201.867 171.56C202.182 172.977 208.734 176.735 208.801 176.778C209.81 177.348 210.156 177.485 210.367 177.485C210.427 177.484 210.486 177.473 210.543 177.452C210.976 177.329 211.177 176.899 212.173 174.635C213.112 172.504 214.489 169.375 216.239 166.495C219.043 167.727 220.34 170.4 220.749 171.423C218.742 172.621 217.736 173.561 217.754 174.221C217.759 174.369 217.805 174.512 217.886 174.634C217.968 174.757 218.082 174.855 218.216 174.916C219.046 175.332 227.394 176.795 228.945 175.555C230.979 173.83 235.626 165.474 235.301 164.589C235.268 164.502 235.214 164.424 235.144 164.362C235.074 164.3 234.991 164.255 234.901 164.232ZM211.137 174.181C210.777 174.998 210.409 175.837 210.189 176.243C208.734 175.558 203.439 172.168 202.988 171.338C203.053 170.443 205.272 163.892 209.038 159.442C209.981 158.333 210.725 158.434 212.353 158.654C213.607 158.824 215.326 159.057 217.736 158.683L218.01 158.636C219.119 158.445 220.808 158.154 222.666 158.594C217.075 160.687 213.142 169.621 211.137 174.181ZM228.225 174.682C227.45 175.298 220.907 174.573 219.075 174.032C219.515 173.589 220.605 172.817 221.73 172.17C221.84 172.106 221.926 172.008 221.973 171.889C222.021 171.771 222.027 171.641 221.991 171.518C221.941 171.345 220.718 167.321 216.853 165.529C218.968 162.298 221.568 159.587 224.556 159.307C228.181 161.266 230.551 165.714 230.575 165.76C230.638 165.88 230.743 165.973 230.869 166.023C230.995 166.073 231.135 166.075 231.264 166.031C232.046 165.76 233.193 165.439 233.964 165.34C233.076 167.321 230.071 173.114 228.225 174.682Z" fill="#1A1919"/>
<path d="M197.581 109.428C197.088 108.839 196.605 108.241 196.134 107.635L196.833 109.538L188.729 99.1744C188.729 99.1744 192.876 93.6376 193.251 93.2827L193.658 96.6093L194.589 91.8893L195.304 88.2621L197.067 84.6177L197.953 82.4L201.965 75.6532L202.593 74.5444L204.026 68.4531L204.819 65.0748L215.618 62.5996L223.627 67.3714C223.437 67.3923 223.243 67.4145 223.043 67.4391C219.779 67.8432 216.988 68.8794 213.4 69.7357C210.197 70.4971 207.24 70.7595 205.427 71.484C204.49 71.8536 203.856 72.3538 203.652 73.1066C203.242 74.6306 203.866 76.3099 206.513 77.2956C207.711 77.7416 209.322 78.0459 211.441 78.1309C217.862 78.3884 221.676 76.0709 225.939 77.1157C229.862 78.0792 231.212 77.9917 238.611 80.4644C240.067 80.9572 241.414 81.4957 242.712 82.0427L243.396 82.6193V92.3772L239.986 100.723L239.824 100.239C239.712 100.718 239.562 101.187 239.376 101.642L239.992 102.258L239.287 106.961L229.036 116.283C229.007 116.31 228.971 116.33 228.933 116.342C228.895 116.354 228.854 116.357 228.814 116.352C228.774 116.347 228.736 116.333 228.702 116.311C228.668 116.29 228.639 116.261 228.618 116.227L228.593 116.258L226.572 115.354C223.404 114.088 217.568 111.756 217.525 111.713L226.45 115.298L217.307 111.199C216.96 111.044 216.548 110.889 216.214 111.076C215.95 111.221 215.833 111.531 215.706 111.805C215.427 112.397 215.018 112.919 214.509 113.331L212.908 116.918C212.847 116.861 212.624 116.528 212.31 116.044C210.477 116.192 208.654 115.662 207.186 114.554C206.473 114.008 205.776 113.296 204.88 113.253C204.612 113.246 204.345 113.282 204.089 113.362L199.128 117.477C199.128 117.477 196.664 110.947 196.837 110.775C196.88 110.726 197.174 110.188 197.581 109.428Z" fill="#F3F2F7"/>
<path d="M190.058 74.2745C190.92 71.0835 193.604 66.1984 194.715 64.9922C197.125 62.3741 202.44 57.6799 203.295 57.0996C205.728 55.4462 209.86 55.9045 214.137 55.6889C219.498 55.4191 227.137 54.5296 230.323 55.1444C233.509 55.7592 236.538 57.3497 239.329 58.312C243.67 59.8089 254.697 62.9014 259.221 63.6837L258.425 63.7232C259.153 63.8759 259.802 64.0004 260.31 64.0718C261.164 64.1951 261.228 66.8674 261.449 67.7003C263.203 74.3057 264.957 80.9116 266.71 87.5179C266.217 87.7285 265.711 87.9232 265.206 88.1105L265.861 88.055C261.809 89.4682 259.099 90.6066 255.598 90.5832C252.508 90.5635 249.685 90.136 246.895 89.6814L247.086 89.6653C245.873 89.4423 244.665 89.1725 243.455 88.9261C243.514 87.7175 243.634 86.5125 243.702 85.3039C243.739 84.6041 243.798 83.8599 243.613 83.1847C243.645 82.9457 243.678 82.7079 243.718 82.4701L243.36 82.3186C243.349 82.3901 243.341 82.4627 243.328 82.5342C243.302 82.4923 243.282 82.448 243.252 82.411C243.2 82.3395 243.144 82.273 243.087 82.2065L242.709 82.0463C241.41 81.4993 240.063 80.9547 238.607 80.4681C231.887 78.222 230.156 78.0877 226.957 77.3608C225.869 77.2227 224.775 77.1405 223.678 77.1144C222.062 77.0836 220.459 77.2376 218.861 77.4458C217.183 77.7526 215.343 78.0692 213.212 78.1345C211.792 78.246 210.363 78.1768 208.96 77.9288C208.798 77.898 208.632 77.8561 208.467 77.8191C207.801 77.7001 207.146 77.5232 206.511 77.2906V77.2967C206.443 77.2721 206.381 77.2438 206.315 77.2179L206.167 77.1575C206.064 77.1132 205.964 77.0676 205.866 77.0208L205.728 76.9542C205.636 76.9074 205.547 76.8594 205.461 76.8101L205.338 76.7361C205.257 76.6869 205.178 76.6364 205.103 76.5858C205.063 76.56 205.025 76.5329 204.988 76.507C204.915 76.4552 204.846 76.4023 204.78 76.3481C204.761 76.3333 204.739 76.3185 204.722 76.3037C204.106 75.8454 203.582 75.2343 203.434 74.4778C203.342 73.9675 203.434 73.441 203.693 72.9919C203.693 72.9784 203.705 72.9648 203.71 72.9513C203.732 72.892 203.756 72.834 203.784 72.7775L203.815 72.7196C203.847 72.6617 203.879 72.6051 203.917 72.5496C203.917 72.5398 203.932 72.5311 203.938 72.5213C204.083 72.3246 204.257 72.1516 204.454 72.0087L204.477 71.9915C204.532 71.9521 204.591 71.9139 204.65 71.8769C204.679 71.8597 204.705 71.8412 204.733 71.8252C204.788 71.7919 204.848 71.7599 204.907 71.7291C204.944 71.7094 204.981 71.6896 205.019 71.6712L205.196 71.5874L205.334 71.5283C205.366 71.5147 205.396 71.4999 205.428 71.4876C206.2 71.1783 207.177 70.9529 208.295 70.7373L208.524 70.6757C209.024 70.5426 209.51 70.3664 210.015 70.2408C210.963 70.0042 211.934 69.9241 212.906 69.8514L213.399 69.7368C216.546 68.9853 219.079 68.097 221.856 67.6165C221.862 67.5792 221.854 67.5412 221.834 67.5093C221.235 66.5852 220.279 65.9076 219.301 65.4394C218.355 64.9823 215.209 62.5872 215.112 62.6057C214.167 62.7289 213.622 63.3856 212.701 63.632C212.257 63.7552 205.625 64.8567 205.185 64.9984C204.446 65.0612 204.711 65.6723 204.496 66.807C204.172 68.5319 201.005 69.3487 199.832 70.3972C198.447 71.6293 197.57 73.4429 194.948 76.4552C192.326 79.4676 189.091 77.8721 190.058 74.2745Z" fill="#FFDDC0"/>
<path d="M204.025 68.4531L202.593 74.5432L201.965 75.652L197.953 82.3988L197.067 84.6165L195.303 88.2658L194.588 91.893C194.209 91.7759 193.615 91.447 193.48 91.1045C193.162 90.3307 193.222 89.1923 193.401 87.9652C193.664 86.1196 196.349 74.5518 204.025 68.4531Z" fill="#FFDDC0"/>
<path d="M220.874 76.9457C220.936 76.8123 221.048 76.7082 221.185 76.6553C221.322 76.6024 221.474 76.6047 221.61 76.6619C221.745 76.719 221.853 76.8265 221.911 76.9617C221.969 77.0969 221.972 77.2493 221.92 77.3868L218.709 84.9922L223.492 85.5762C223.635 85.595 223.765 85.6671 223.856 85.7779C223.947 85.8886 223.994 86.0299 223.985 86.1733C223.976 86.3166 223.914 86.4514 223.81 86.5505C223.706 86.6496 223.568 86.7056 223.425 86.7073C223.402 86.7085 223.379 86.7085 223.356 86.7073L217.825 86.0284C217.738 86.018 217.654 85.9874 217.581 85.9391C217.507 85.8908 217.446 85.8261 217.402 85.7501C217.358 85.6741 217.332 85.5889 217.327 85.5012C217.321 85.4135 217.336 85.3257 217.37 85.2448L220.874 76.9457ZM243.19 92.6421V82.9963C243.19 82.8457 243.25 82.7012 243.357 82.5947C243.463 82.4882 243.608 82.4283 243.758 82.4283C243.909 82.4283 244.054 82.4882 244.16 82.5947C244.267 82.7012 244.326 82.8457 244.326 82.9963V92.7542C244.326 92.8278 244.312 92.9006 244.283 92.9686L240.874 101.316C240.814 101.451 240.704 101.558 240.567 101.613C240.43 101.668 240.277 101.668 240.14 101.612C240.003 101.556 239.893 101.448 239.834 101.313C239.775 101.177 239.771 101.024 239.823 100.886L243.19 92.6421ZM222.045 92.8577C221.959 92.9337 221.898 93.0339 221.87 93.1452C221.842 93.2564 221.849 93.3735 221.889 93.4809C221.929 93.5884 222.001 93.6812 222.094 93.7472C222.188 93.8132 222.3 93.8493 222.414 93.8507C222.551 93.8497 222.682 93.7989 222.784 93.7078C235.048 82.8817 235.153 82.6365 235.215 82.4961C235.247 82.4245 235.263 82.3471 235.263 82.2688C235.263 82.1905 235.247 82.1131 235.215 82.0415L233.85 78.981C233.789 78.8436 233.676 78.7362 233.535 78.6824C233.395 78.6285 233.239 78.6327 233.101 78.694C232.964 78.7552 232.856 78.8686 232.802 79.0091C232.749 79.1495 232.753 79.3057 232.814 79.4431L234.023 82.1536C232.72 83.3992 226.353 89.0543 222.045 92.8577ZM204.272 64.927C204.299 64.8276 204.353 64.7374 204.427 64.6661C204.501 64.5947 204.593 64.5448 204.694 64.5216L215.493 62.0464C215.571 62.0282 215.652 62.0269 215.73 62.0426C215.809 62.0584 215.883 62.0907 215.948 62.1376L222.753 66.9919C222.869 67.0818 222.946 67.2131 222.967 67.3582C222.988 67.5034 222.953 67.6511 222.867 67.7706C222.782 67.89 222.654 67.9718 222.51 67.9989C222.366 68.026 222.217 67.9963 222.094 67.9159L215.498 63.2095L205.28 65.5504L202.515 75.7974C202.483 75.9178 202.412 76.0241 202.313 76.1C202.214 76.1759 202.093 76.2172 201.968 76.2175C201.918 76.217 201.868 76.2103 201.819 76.1978C201.674 76.1583 201.551 76.0628 201.476 75.9323C201.401 75.8018 201.381 75.647 201.42 75.5017L204.272 64.927Z" fill="#1A1919"/>
<path d="M226.659 77.1984C220.23 93.4431 220.332 93.7474 220.412 93.9913C220.46 94.1355 220.573 94.4718 225.018 98.9195C225.124 99.0259 225.268 99.0857 225.418 99.0859C225.449 99.0859 225.48 99.0834 225.511 99.0785L234.798 97.5495C234.941 97.5196 235.067 97.4355 235.15 97.3148C235.233 97.1941 235.266 97.0461 235.242 96.9016C235.219 96.7572 235.14 96.6275 235.023 96.5395C234.906 96.4516 234.76 96.4122 234.614 96.4296L225.62 97.908C223.876 96.1597 222.04 94.2636 221.563 93.6882C222.003 92.2011 225.418 83.4338 227.723 77.6173C227.751 77.548 227.764 77.4741 227.763 77.3996C227.762 77.3251 227.746 77.2516 227.717 77.1833C227.687 77.1149 227.644 77.053 227.591 77.0012C227.537 76.9494 227.474 76.9086 227.405 76.8811C227.336 76.8537 227.262 76.8402 227.187 76.8414C227.113 76.8425 227.039 76.8583 226.971 76.8879C226.903 76.9175 226.841 76.9602 226.789 77.0137C226.737 77.0672 226.696 77.1304 226.669 77.1996L226.659 77.1984ZM201.487 75.3454C201.569 75.2186 201.697 75.1295 201.845 75.0976C201.992 75.0657 202.146 75.0937 202.273 75.1754C202.4 75.257 202.489 75.3858 202.521 75.5332C202.553 75.6806 202.525 75.8346 202.443 75.9614L198.051 82.8363C198.01 82.8991 197.958 82.9533 197.896 82.9958C197.835 83.0383 197.766 83.0683 197.693 83.0841C197.62 83.0999 197.544 83.1011 197.471 83.0878C197.397 83.0744 197.327 83.0468 197.265 83.0063C197.202 82.9659 197.148 82.9134 197.105 82.852C197.063 82.7906 197.033 82.7215 197.017 82.6485C197.001 82.5755 197 82.5001 197.013 82.4266C197.026 82.3532 197.054 82.283 197.095 82.2203L201.487 75.3454Z" fill="#1A1919"/>
<path d="M220.063 95.4117L222.528 102.348C222.564 102.448 222.629 102.536 222.713 102.602C222.797 102.667 222.898 102.707 223.004 102.718L227.967 103.235L226.28 108.929C226.251 109.032 226.251 109.142 226.28 109.245L228.388 116.678C228.428 116.818 228.502 116.946 228.605 117.049C228.707 117.152 228.835 117.227 228.975 117.266C229.052 117.288 229.131 117.299 229.212 117.299C229.423 117.299 229.626 117.22 229.782 117.077L240.024 107.746C240.12 107.658 240.183 107.54 240.203 107.411L240.907 102.708C240.921 102.62 240.913 102.53 240.885 102.446C240.858 102.362 240.81 102.285 240.747 102.223L235.104 96.5797C235.025 96.5001 234.924 96.4458 234.814 96.4238C234.704 96.4018 234.589 96.413 234.486 96.456C234.382 96.4991 234.293 96.572 234.231 96.6655C234.169 96.7591 234.136 96.869 234.136 96.9813V106.704L229.16 115.239L227.418 109.099L229.252 102.908C229.276 102.828 229.281 102.744 229.269 102.661C229.256 102.579 229.226 102.5 229.18 102.431C229.133 102.362 229.072 102.303 229.001 102.26C228.93 102.217 228.85 102.191 228.767 102.182L223.48 101.631L221.13 95.0322C221.076 94.8957 220.971 94.7856 220.837 94.725C220.703 94.6644 220.551 94.6581 220.412 94.7074C220.274 94.7567 220.16 94.8578 220.094 94.9893C220.029 95.1209 220.017 95.2727 220.061 95.4129L220.063 95.4117ZM230.877 114.549L235.197 107.147C235.247 107.06 235.274 106.962 235.273 106.861V98.36L239.746 102.831L239.112 107.051L230.877 114.549ZM208.461 79.6414C212.419 79.9506 217.264 80.3129 217.9 80.3129C218.046 80.3197 218.184 80.3824 218.284 80.4881C218.385 80.5937 218.442 80.7342 218.442 80.8802C218.442 81.0263 218.385 81.1667 218.284 81.2724C218.184 81.378 218.046 81.4408 217.9 81.4476C217.06 81.4476 210.394 80.9313 208.373 80.7724C208.223 80.7606 208.083 80.6898 207.986 80.5754C207.888 80.461 207.84 80.3125 207.851 80.1625C207.863 80.0126 207.934 79.8734 208.048 79.7757C208.163 79.6779 208.311 79.6296 208.461 79.6414Z" fill="#1A1919"/>
<path d="M206.548 82.0549C206.674 81.9711 206.827 81.9402 206.975 81.9691C207.122 81.9979 207.253 82.0842 207.337 82.2089L216.602 95.9636C216.652 96.0387 216.683 96.1245 216.693 96.2141C216.703 96.3036 216.692 96.3942 216.66 96.4785C216.628 96.5627 216.576 96.6382 216.51 96.6986C216.443 96.759 216.363 96.8027 216.276 96.826L214.363 97.3188L217.516 101.795L223.165 108.871H226.536C226.613 108.867 226.689 108.879 226.761 108.906C226.833 108.933 226.899 108.974 226.955 109.027C227.01 109.08 227.055 109.144 227.085 109.215C227.115 109.285 227.131 109.361 227.131 109.438C227.131 109.515 227.115 109.591 227.085 109.661C227.055 109.732 227.01 109.796 226.955 109.849C226.899 109.902 226.833 109.943 226.761 109.97C226.689 109.997 226.613 110.009 226.536 110.005H222.892C222.807 110.005 222.722 109.986 222.646 109.949C222.569 109.912 222.501 109.859 222.448 109.792L216.608 102.475L212.964 97.3004C212.911 97.2254 212.877 97.1388 212.865 97.048C212.853 96.9571 212.864 96.8647 212.895 96.7786C212.926 96.6926 212.978 96.6154 213.046 96.5537C213.114 96.492 213.195 96.4477 213.284 96.4244L215.214 95.9217L206.396 82.8447C206.353 82.7829 206.324 82.7134 206.309 82.6401C206.293 82.5669 206.293 82.4913 206.307 82.4179C206.321 82.3444 206.35 82.2745 206.391 82.2122C206.433 82.1499 206.486 82.0964 206.548 82.0549Z" fill="#1A1919"/>
<path d="M219.348 103.913L222.753 101.684C222.879 101.617 223.025 101.599 223.164 101.634C223.302 101.67 223.422 101.756 223.499 101.875C223.577 101.995 223.607 102.14 223.583 102.28C223.558 102.421 223.482 102.547 223.369 102.634L219.959 104.868C219.867 104.928 219.759 104.96 219.649 104.96C219.527 104.96 219.408 104.92 219.31 104.847C219.213 104.774 219.141 104.671 219.106 104.555C219.071 104.438 219.075 104.313 219.117 104.198C219.159 104.083 219.236 103.985 219.338 103.918L219.348 103.913ZM193.474 96.8768C193.448 97.0066 193.469 97.1412 193.532 97.2575L196.353 102.432C196.409 102.534 196.494 102.616 196.598 102.668C196.702 102.719 196.819 102.738 196.933 102.721C197.048 102.704 197.155 102.653 197.239 102.574C197.324 102.495 197.382 102.391 197.406 102.278C197.81 100.373 198.269 98.2653 198.467 97.4584C199.254 97.4928 201.323 97.7467 203.345 98.0337L201.439 102.77C201.396 102.876 201.386 102.994 201.412 103.106L202.397 107.517C202.417 107.909 202.787 108.174 209.754 111.829C209.809 111.857 209.877 111.889 210.173 111.889C210.942 111.889 213.26 111.671 220.971 110.596C221.118 110.573 221.251 110.493 221.34 110.373C221.43 110.254 221.468 110.103 221.447 109.955C221.427 109.807 221.348 109.674 221.23 109.583C221.111 109.492 220.961 109.452 220.813 109.471C217.117 109.988 211.087 110.789 210.188 110.774C207.332 109.275 204.175 107.571 203.473 107.126L202.556 103.027L204.666 97.7836C204.698 97.704 204.711 97.6181 204.705 97.5325C204.699 97.4469 204.674 97.3637 204.631 97.2892C204.589 97.2148 204.53 97.1509 204.459 97.1026C204.388 97.0542 204.307 97.0225 204.222 97.0099C197.815 96.0686 197.732 96.2448 197.518 96.6711C197.485 96.7376 197.395 96.9175 196.615 100.54L194.627 96.8904L196.229 88.7748L198.112 82.6946C198.138 82.6226 198.148 82.5462 198.143 82.47C198.138 82.3938 198.118 82.3194 198.084 82.2512C198.049 82.183 198.002 82.1224 197.944 82.073C197.885 82.0237 197.818 81.9866 197.745 81.964C197.672 81.9414 197.595 81.9337 197.519 81.9414C197.443 81.9491 197.37 81.972 197.303 82.0088C197.236 82.0456 197.177 82.0956 197.13 82.1556C197.083 82.2156 197.048 82.2846 197.028 82.3583L195.131 88.4705L195.116 88.5296L193.474 96.8768Z" fill="#1A1919"/>
<path d="M198.337 96.4911C198.468 96.4176 198.623 96.3994 198.768 96.4403C198.913 96.4812 199.036 96.5779 199.109 96.7091L202.459 102.704C202.496 102.769 202.519 102.841 202.528 102.915C202.537 102.989 202.531 103.064 202.511 103.136C202.49 103.208 202.456 103.275 202.41 103.333C202.364 103.392 202.306 103.44 202.241 103.477C202.157 103.524 202.062 103.549 201.965 103.55C201.865 103.549 201.766 103.522 201.68 103.471C201.593 103.42 201.522 103.346 201.472 103.259L198.119 97.2599C198.047 97.1288 198.029 96.9746 198.07 96.8306C198.111 96.6867 198.207 96.5646 198.337 96.4911ZM197.771 81.8592L203.35 79.9815C203.491 79.9407 203.642 79.9558 203.772 80.0236C203.901 80.0915 204 80.2069 204.047 80.3457C204.094 80.4845 204.085 80.636 204.023 80.7686C203.96 80.9011 203.849 81.0045 203.712 81.0571L198.132 82.9347C198.074 82.954 198.014 82.964 197.953 82.9643C197.815 82.9683 197.681 82.9224 197.575 82.835C197.469 82.7476 197.399 82.6247 197.377 82.4892C197.354 82.3536 197.382 82.2147 197.455 82.0981C197.527 81.9816 197.64 81.8953 197.771 81.8555V81.8592Z" fill="#1A1919"/>
<path d="M203.592 79.957L206.926 80.3155C207.003 80.3241 207.077 80.3481 207.144 80.386C207.211 80.4238 207.27 80.4749 207.317 80.536C207.364 80.5972 207.397 80.6674 207.416 80.7422C207.435 80.8171 207.438 80.8949 207.425 80.9709L204.7 97.6653C204.678 97.7981 204.61 97.9188 204.508 98.0059C204.405 98.093 204.275 98.1409 204.141 98.1409C204.11 98.1414 204.079 98.139 204.049 98.1335C203.976 98.1218 203.905 98.0957 203.842 98.0566C203.778 98.0176 203.723 97.9663 203.679 97.9059C203.636 97.8454 203.604 97.7769 203.587 97.7043C203.57 97.6318 203.568 97.5565 203.58 97.483L206.209 81.38L203.47 81.0843C203.396 81.0762 203.325 81.0536 203.259 81.0178C203.194 80.982 203.136 80.9337 203.09 80.8756C203.043 80.8176 203.008 80.7509 202.988 80.6794C202.967 80.6079 202.96 80.5331 202.968 80.459C202.976 80.385 202.999 80.3133 203.035 80.248C203.07 80.1827 203.119 80.1251 203.177 80.0785C203.235 80.0319 203.302 79.9972 203.373 79.9763C203.445 79.9555 203.519 79.9489 203.593 79.957H203.592Z" fill="#1A1919"/>
<path d="M203.225 80.0432L207.507 77.3006C207.569 77.2602 207.64 77.2325 207.713 77.2191C207.786 77.2058 207.862 77.207 207.935 77.2228C208.008 77.2386 208.077 77.2686 208.138 77.3111C208.2 77.3537 208.252 77.4078 208.293 77.4706C208.333 77.5334 208.361 77.6035 208.374 77.677C208.387 77.7505 208.386 77.8259 208.37 77.8989C208.355 77.9719 208.325 78.041 208.282 78.1024C208.24 78.1638 208.185 78.2162 208.123 78.2567L203.838 80.9968C203.747 81.0558 203.64 81.087 203.532 81.0867C203.409 81.0872 203.289 81.0478 203.191 80.9744C203.092 80.901 203.02 80.7975 202.986 80.6796C202.951 80.5618 202.956 80.4358 202.999 80.3208C203.042 80.2058 203.122 80.1079 203.225 80.0419V80.0432ZM216.361 87.4035C216.977 88.3066 217.654 89.307 217.942 89.7629L215.122 94.2697C215.082 94.3329 215.055 94.4032 215.043 94.4767C215.031 94.5503 215.033 94.6255 215.049 94.6982C215.066 94.7709 215.097 94.8396 215.14 94.9003C215.184 94.961 215.239 95.0126 215.302 95.0521C215.392 95.1089 215.496 95.1388 215.602 95.1383C215.699 95.1384 215.793 95.114 215.878 95.0675C215.962 95.0209 216.033 94.9537 216.084 94.8722L219.082 90.0819C219.156 89.9618 219.184 89.8182 219.158 89.6791C219.121 89.4758 219.058 89.355 217.299 86.7653C216.359 85.3817 214.899 83.2317 214.324 82.2522C215.408 82.0058 217.85 81.5339 220.062 81.1261C220.206 81.0938 220.331 81.0073 220.411 80.8849C220.492 80.7624 220.522 80.6134 220.496 80.4692C220.469 80.3249 220.388 80.1965 220.269 80.1109C220.15 80.0253 220.002 79.9891 219.857 80.0099C213.635 81.1582 213.358 81.3257 213.253 81.3886C213.116 81.4747 213.018 81.6115 212.981 81.7693C212.897 82.1685 213.009 82.4752 216.361 87.4035Z" fill="#1A1919"/>
<path d="M212.723 81.7989C212.758 81.6518 212.85 81.5246 212.978 81.4453C213.107 81.3659 213.262 81.3409 213.409 81.3757C213.556 81.4105 213.683 81.5023 213.762 81.6308C213.842 81.7594 213.867 81.9143 213.832 82.0613L212.053 89.5313C212.023 89.6554 211.953 89.766 211.852 89.8451C211.752 89.9242 211.628 89.9673 211.501 89.9674C211.456 89.9668 211.412 89.9615 211.369 89.9514C211.223 89.9163 211.096 89.8246 211.017 89.6964C210.939 89.5682 210.914 89.414 210.949 89.2676L212.723 81.7989ZM213.008 96.6045C213.058 96.5494 213.118 96.5047 213.186 96.473C213.253 96.4413 213.326 96.4232 213.4 96.4197C213.475 96.4162 213.549 96.4274 213.619 96.4527C213.689 96.4779 213.754 96.5168 213.809 96.5669C213.864 96.6171 213.909 96.6776 213.94 96.745C213.972 96.8124 213.99 96.8854 213.994 96.9599C213.997 97.0343 213.986 97.1087 213.961 97.1788C213.936 97.2488 213.897 97.3133 213.847 97.3684L204.272 107.89C204.17 107.997 204.03 108.06 203.882 108.065C203.734 108.07 203.589 108.017 203.48 107.918C203.37 107.818 203.304 107.68 203.295 107.532C203.286 107.384 203.335 107.238 203.432 107.126L213.008 96.6045ZM188.625 99.2485C188.562 99.3474 188.53 99.4637 188.536 99.5811C188.541 99.6986 188.583 99.8115 188.656 99.9039L196.757 110.268C196.802 110.329 196.859 110.379 196.924 110.418C196.989 110.456 197.062 110.481 197.137 110.491C197.212 110.501 197.288 110.495 197.361 110.476C197.434 110.456 197.502 110.422 197.561 110.375C197.621 110.328 197.671 110.27 197.707 110.204C197.744 110.138 197.768 110.066 197.776 109.99C197.784 109.915 197.778 109.839 197.756 109.767C197.735 109.694 197.699 109.627 197.651 109.568L189.796 99.522C191.196 97.3363 193.285 94.1194 193.622 93.7129C193.722 93.6269 193.788 93.5091 193.81 93.3796C193.833 93.2501 193.809 93.117 193.744 93.0028C193.679 92.8886 193.577 92.8004 193.454 92.7533C193.332 92.7062 193.196 92.7031 193.072 92.7445C192.835 92.8245 192.704 92.8677 188.625 99.2485Z" fill="#1A1919"/>
<path d="M196.768 110.787C196.481 111.086 196.464 111.441 198.966 118.056C198.998 118.14 199.05 118.216 199.117 118.276C199.184 118.337 199.265 118.38 199.352 118.403C199.399 118.415 199.448 118.422 199.497 118.422C199.63 118.421 199.758 118.375 199.86 118.291L205.034 114.001L207.521 111.767C207.625 111.665 207.687 111.526 207.692 111.379C207.696 111.233 207.644 111.09 207.546 110.981C207.448 110.872 207.312 110.805 207.165 110.794C207.019 110.784 206.874 110.83 206.762 110.923L204.297 113.141L199.755 116.909C198.838 114.459 197.947 111.947 197.792 111.287C198.093 110.777 198.938 109.221 201.536 104.214C201.602 104.08 201.613 103.926 201.567 103.785C201.521 103.644 201.421 103.526 201.289 103.458C201.157 103.389 201.004 103.375 200.861 103.419C200.719 103.462 200.6 103.559 200.529 103.69C199.209 106.219 197.062 110.32 196.768 110.787ZM197.617 111.543C197.652 111.506 197.682 111.465 197.706 111.42C197.68 111.463 197.652 111.504 197.62 111.543H197.617Z" fill="#1A1919"/>
<path d="M197.619 111.543C197.654 111.506 197.684 111.465 197.708 111.42C197.682 111.463 197.652 111.504 197.619 111.543ZM218.164 111.592C218.612 111.794 224.951 114.329 229.147 116.002C229.27 116.05 229.373 116.14 229.436 116.256C229.5 116.372 229.521 116.507 229.496 116.636C229.471 116.766 229.402 116.883 229.299 116.967C229.197 117.051 229.069 117.097 228.937 117.096C228.865 117.096 228.794 117.083 228.727 117.057C217.639 112.636 217.608 112.608 217.493 112.498C217.397 112.402 217.339 112.274 217.329 112.138C217.319 112.002 217.358 111.867 217.44 111.758C217.521 111.649 217.639 111.572 217.772 111.542C217.904 111.513 218.044 111.532 218.164 111.596V111.592ZM215.592 96.1017C215.613 96.0281 215.649 95.9595 215.698 95.9C215.746 95.8405 215.806 95.7915 215.873 95.7557C215.941 95.72 216.016 95.6984 216.092 95.6921C216.168 95.6858 216.245 95.6951 216.318 95.7193C216.391 95.7435 216.458 95.7821 216.515 95.8329C216.572 95.8837 216.619 95.9456 216.652 96.0148C216.684 96.084 216.703 96.1592 216.706 96.2357C216.709 96.3123 216.696 96.3887 216.669 96.4603L215.642 99.5404C215.604 99.6535 215.532 99.7518 215.435 99.8215C215.339 99.8912 215.222 99.9286 215.103 99.9285C215.013 99.9284 214.925 99.907 214.844 99.866C214.764 99.8249 214.695 99.7654 214.643 99.6924C214.59 99.6193 214.556 99.5349 214.542 99.4459C214.529 99.3569 214.536 99.266 214.565 99.1806L215.592 96.1017ZM208.884 110.443C209.007 110.356 209.16 110.322 209.308 110.348C209.456 110.374 209.588 110.458 209.675 110.581C209.75 110.689 210.065 111.197 210.716 112.238C211.403 113.347 212.518 115.133 213.17 116.145L215.613 110.676C215.679 110.544 215.792 110.444 215.93 110.394C216.068 110.344 216.22 110.35 216.354 110.41C216.488 110.47 216.593 110.579 216.648 110.715C216.703 110.851 216.704 111.003 216.649 111.139L213.794 117.531C213.757 117.614 213.7 117.687 213.629 117.743C213.558 117.8 213.475 117.839 213.386 117.856C213.349 117.864 213.312 117.867 213.275 117.867C213.13 117.867 212.99 117.812 212.884 117.712C212.7 117.536 212.022 116.489 209.752 112.839C209.267 112.059 208.807 111.324 208.745 111.238C208.701 111.176 208.671 111.107 208.654 111.034C208.638 110.961 208.636 110.885 208.649 110.811C208.662 110.737 208.689 110.667 208.73 110.604C208.77 110.54 208.822 110.486 208.884 110.443Z" fill="#1A1919"/>
<path d="M205.135 113.569L213.476 116.764C213.549 116.789 213.616 116.828 213.673 116.879C213.731 116.93 213.777 116.992 213.81 117.061C213.842 117.13 213.861 117.205 213.864 117.282C213.866 117.359 213.854 117.435 213.826 117.507C213.799 117.578 213.757 117.643 213.704 117.698C213.65 117.753 213.586 117.797 213.516 117.827C213.445 117.856 213.369 117.871 213.293 117.871C213.216 117.871 213.14 117.855 213.07 117.824L204.731 114.632C204.597 114.574 204.49 114.466 204.434 114.331C204.377 114.196 204.375 114.044 204.427 113.907C204.48 113.771 204.583 113.66 204.715 113.597C204.848 113.535 204.999 113.526 205.138 113.572L205.135 113.569ZM209.571 69.923C210.752 69.7098 211.976 69.4893 213.26 69.1837C214.484 68.8917 215.615 68.5776 216.709 68.2745C218.804 67.6942 220.775 67.1459 222.962 66.8761C225.279 66.589 226.802 66.5964 228.73 66.6063C229.943 66.6063 231.318 66.6186 233.149 66.5508C236.784 66.4153 239.458 66.0136 242.29 65.5886C243.112 65.4654 243.952 65.3422 244.837 65.219C244.985 65.2016 245.133 65.2428 245.251 65.3336C245.368 65.4244 245.445 65.5577 245.466 65.7048C245.486 65.8519 245.448 66.0012 245.36 66.1207C245.272 66.2401 245.14 66.3202 244.994 66.3438C244.113 66.467 243.277 66.5902 242.458 66.7135C239.595 67.1434 236.89 67.55 233.19 67.688C231.342 67.757 229.95 67.7496 228.726 67.7434C226.837 67.7361 225.346 67.7274 223.102 68.0046C221.008 68.2646 219.065 68.8018 217.012 69.371C215.904 69.6765 214.766 69.987 213.522 70.2901C212.207 70.603 210.912 70.8359 209.77 71.0429C206.844 71.569 204.534 71.9854 204.19 73.2606C204.084 73.6089 204.061 73.9773 204.123 74.3361C204.186 74.6948 204.332 75.0338 204.55 75.3255C205.23 76.2496 206.978 77.3892 211.45 77.5679C214.407 77.6911 216.828 77.2414 218.965 76.8496C221.497 76.3863 223.683 75.9871 226.061 76.5687C227.163 76.8385 228.074 77.0295 228.955 77.2118C231.264 77.6935 233.444 78.1482 238.778 79.9297C240.652 80.5568 242.341 81.2764 243.973 81.9712C248.332 83.8267 252.096 85.4296 257.919 84.8395C257.994 84.8299 258.071 84.8355 258.144 84.8559C258.217 84.8763 258.285 84.9111 258.344 84.9583C258.403 85.0055 258.453 85.064 258.489 85.1305C258.525 85.1971 258.548 85.2702 258.556 85.3456C258.563 85.421 258.556 85.4972 258.534 85.5696C258.511 85.6421 258.475 85.7094 258.426 85.7675C258.378 85.8256 258.318 85.8734 258.25 85.9081C258.183 85.9427 258.109 85.9635 258.034 85.9693C257.213 86.052 256.388 86.0931 255.563 86.0925C250.767 86.0925 247.236 84.5893 243.529 83.0123C241.916 82.3248 240.249 81.6152 238.417 81.0028C233.147 79.2422 230.999 78.7938 228.723 78.3194C227.832 78.1346 226.912 77.9424 225.791 77.6664C223.648 77.1416 221.573 77.5223 219.17 77.9621C216.974 78.365 214.488 78.8184 211.408 78.7014C207.454 78.5437 204.841 77.6344 203.637 75.9908C203.318 75.5622 203.102 75.065 203.009 74.5387C202.915 74.0124 202.945 73.4714 203.096 72.9587C203.63 70.9936 206.253 70.5242 209.571 69.923ZM243.918 88.6354C244.724 88.7586 245.52 88.8818 246.33 89.0198C249.273 89.5016 252.314 89.9993 255.603 90.0203C258.583 90.035 260.961 89.1935 264.258 88.0231C264.713 87.8617 265.182 87.6954 265.671 87.5303C265.743 87.5006 265.82 87.4858 265.897 87.487C265.975 87.4881 266.051 87.5051 266.122 87.5369C266.193 87.5687 266.256 87.6146 266.308 87.6719C266.361 87.7291 266.401 87.7964 266.426 87.8697C266.451 87.943 266.461 88.0207 266.455 88.098C266.449 88.1753 266.428 88.2505 266.392 88.3192C266.356 88.3878 266.306 88.4483 266.245 88.4969C266.185 88.5456 266.115 88.5814 266.041 88.6022C265.548 88.7722 265.085 88.9385 264.633 89.095C261.39 90.2457 258.822 91.1574 255.69 91.1574H255.591C252.213 91.1365 249.127 90.6314 246.142 90.1422C245.342 90.0116 244.54 89.881 243.744 89.7603C243.668 89.752 243.595 89.7284 243.528 89.6909C243.461 89.6535 243.403 89.6029 243.356 89.5423C243.309 89.4817 243.275 89.4122 243.256 89.3381C243.237 89.2641 243.233 89.1869 243.244 89.1112C243.256 89.0355 243.282 88.9629 243.322 88.8978C243.362 88.8326 243.415 88.7763 243.478 88.732C243.54 88.6878 243.611 88.6567 243.686 88.6405C243.761 88.6243 243.838 88.6235 243.913 88.6379L243.918 88.6354Z" fill="#1A1919"/>
<path d="M194.292 64.6103C196.757 61.938 202.082 57.2364 202.97 56.6327C204.962 55.2775 207.942 55.2417 211.101 55.2011C212.08 55.1888 213.092 55.1764 214.105 55.1247C215.584 55.0508 217.212 54.93 218.935 54.8031C223.416 54.4729 228.052 54.1304 230.426 54.5888C232.59 55.0064 234.644 55.8467 236.631 56.6598C237.634 57.0701 238.582 57.4582 239.511 57.7773C243.723 59.2311 254.721 62.3359 259.313 63.1269C259.389 63.1373 259.461 63.1629 259.527 63.2019C259.592 63.241 259.649 63.2929 259.694 63.3544C259.739 63.4159 259.771 63.4859 259.788 63.5601C259.806 63.6343 259.808 63.7112 259.795 63.7863C259.782 63.8614 259.754 63.9331 259.713 63.9972C259.671 64.0612 259.618 64.1163 259.555 64.1592C259.492 64.202 259.421 64.2318 259.346 64.2466C259.271 64.2615 259.194 64.2611 259.12 64.2456C254.48 63.4423 243.385 60.3153 239.141 58.8504C238.182 58.5202 237.22 58.1272 236.201 57.7095C234.265 56.9186 232.258 56.0993 230.212 55.7038C227.983 55.2738 223.426 55.6101 219.019 55.9354C217.294 56.0586 215.655 56.1818 214.162 56.2582C213.128 56.3112 212.106 56.3235 211.116 56.3358C208.137 56.374 205.326 56.411 203.613 57.5679C202.774 58.1371 197.492 62.8127 195.133 65.3754C194.132 66.4608 191.464 71.2277 190.606 74.4199C190.245 75.7616 190.52 76.8619 191.323 77.2894C192.21 77.76 193.463 77.2894 194.516 76.0758C195.765 74.6405 196.624 73.4663 197.315 72.5226C198.082 71.4741 198.688 70.6449 199.45 69.9673C200.179 69.3143 201.552 68.3656 203.532 67.0473C203.657 66.9688 203.808 66.9423 203.953 66.9734C204.097 67.0045 204.224 67.0907 204.306 67.2138C204.388 67.3368 204.419 67.487 204.392 67.6324C204.365 67.7777 204.282 67.9069 204.161 67.9923C202.642 69.0038 200.958 70.1398 200.205 70.8137C199.534 71.4125 198.987 72.1591 198.234 73.1928C197.532 74.1538 196.656 75.3501 195.375 76.82C194.369 77.9769 193.166 78.6028 192.062 78.6028C191.62 78.6051 191.184 78.498 190.793 78.291C189.779 77.7502 188.91 76.3727 189.513 74.1255C190.383 70.8765 193.112 65.8941 194.292 64.6103Z" fill="#1A1919"/>
<path d="M203.425 67.5217C203.474 67.4625 203.534 67.4139 203.602 67.3787C203.671 67.3435 203.745 67.3226 203.822 67.3171C203.898 67.3116 203.975 67.3218 204.048 67.3468C204.121 67.3719 204.187 67.4115 204.244 67.4631C204.301 67.5147 204.347 67.5773 204.379 67.6471C204.411 67.7169 204.428 67.7925 204.43 67.8692C204.432 67.946 204.419 68.0224 204.39 68.0937C204.362 68.165 204.319 68.2299 204.265 68.2843C197.627 75.5953 194.266 85.9212 193.958 88.0403C193.834 88.9102 193.699 90.1508 194 90.8741C194.065 90.9973 194.485 91.2696 194.789 91.3509C194.863 91.3683 194.933 91.4004 194.995 91.4453C195.056 91.4902 195.108 91.547 195.147 91.6123C195.186 91.6776 195.212 91.7501 195.222 91.8255C195.233 91.9009 195.228 91.9776 195.208 92.0511C195.188 92.1246 195.154 92.1934 195.107 92.2534C195.06 92.3134 195.002 92.3634 194.935 92.4003C194.869 92.4373 194.796 92.4605 194.72 92.4686C194.644 92.4767 194.568 92.4695 194.495 92.4474C194.181 92.3624 193.222 91.9718 192.951 91.309C192.637 90.5451 192.601 89.4855 192.835 87.8728C193.167 85.5947 196.515 75.1296 203.425 67.5217Z" fill="#1A1919"/>
<path d="M260.416 61.9873C262.692 61.8099 270.254 61.1902 272.458 60.5815L278.997 86.9475L269.933 88.957C269.363 89.0889 268.764 89.0074 268.251 88.7279C267.737 88.4484 267.343 87.9904 267.144 87.4404C264.95 81.4033 260.815 66.0026 259.932 62.676C259.91 62.5985 259.906 62.5171 259.92 62.4377C259.934 62.3584 259.965 62.2831 260.011 62.2172C260.057 62.1513 260.118 62.0965 260.188 62.0568C260.258 62.017 260.336 61.9933 260.416 61.9873Z" fill="#F3F2F7"/>
<path d="M260.373 61.4219C262.629 61.2469 270.157 60.6284 272.309 60.0346C272.452 60.0016 272.602 60.0251 272.728 60.1001C272.854 60.175 272.946 60.2957 272.985 60.4369C273.023 60.5781 273.006 60.729 272.937 60.8578C272.867 60.9867 272.75 61.0838 272.611 61.1287C270.423 61.7324 263.385 62.3262 260.481 62.527C261.298 65.5936 265.484 81.1976 267.678 87.2409C267.832 87.6602 268.133 88.009 268.526 88.2218C268.918 88.4346 269.375 88.4967 269.811 88.3965L278.875 86.387C279.021 86.356 279.174 86.3841 279.3 86.465C279.426 86.546 279.514 86.6734 279.547 86.8195C279.579 86.9656 279.553 87.1186 279.473 87.2452C279.393 87.3719 279.267 87.462 279.121 87.4959L270.064 89.498C269.847 89.5488 269.624 89.5744 269.4 89.5744C268.792 89.5739 268.199 89.3864 267.701 89.0373C267.203 88.6882 266.824 88.1944 266.616 87.6228C264.398 81.5352 260.209 65.8893 259.389 62.8141C259.346 62.6565 259.338 62.4913 259.366 62.3304C259.395 62.1695 259.458 62.0169 259.552 61.8834C259.647 61.7499 259.769 61.6389 259.911 61.5582C260.053 61.4776 260.211 61.4294 260.374 61.417L260.373 61.4219Z" fill="#1A1919"/>
<path d="M273.144 59.2928C279.879 56.9926 304.239 44.1385 320.737 35.28C320.803 35.4611 320.867 35.6435 320.931 35.8209C325.043 47.4123 328.163 59.3322 330.256 71.452C330.291 71.6405 330.32 71.8302 330.351 72.0199C311.166 78.7876 284.123 88.1057 280.469 89.1948C280.318 89.2394 280.155 89.2237 280.016 89.1511C279.876 89.0785 279.77 88.9546 279.72 88.8055C279.64 88.5677 279.459 88.1131 279.205 87.4699C279.081 87.1594 278.941 86.805 278.785 86.4067C278.24 85.007 277.518 83.0974 276.746 80.8156C274.105 72.9846 272.985 64.5734 272.614 61.1236C272.576 60.7836 272.547 60.4916 272.523 60.2538C272.516 60.1766 272.519 60.0988 272.531 60.0222C272.557 59.8564 272.628 59.7009 272.736 59.5724C272.844 59.4439 272.985 59.3473 273.144 59.2928Z" fill="#5683BA"/>
<path d="M272.963 58.7557C279.634 56.4777 304.04 43.6014 320.539 34.7393C320.611 34.9204 320.675 35.099 320.739 35.2801C320.803 35.4612 320.868 35.6436 320.932 35.821C304.423 44.6918 280.141 57.5052 273.331 59.8301C273.254 59.8548 273.188 59.9048 273.143 59.9719C273.098 60.039 273.078 60.1193 273.084 60.1997C273.342 62.8326 274.396 72.094 277.273 80.6333C278.143 83.2059 278.95 85.2979 279.509 86.7234C279.601 86.9587 279.687 87.1706 279.763 87.3665C280.01 87.9826 280.164 88.3842 280.247 88.6232C280.249 88.6283 280.251 88.6329 280.254 88.637C280.258 88.6411 280.262 88.6444 280.266 88.6468C280.271 88.6493 280.276 88.6507 280.281 88.6511C280.286 88.6515 280.292 88.6508 280.297 88.6491C284.125 87.5107 311.145 78.1926 330.247 71.4508C330.281 71.6393 330.311 71.8291 330.342 72.0188C330.372 72.2085 330.409 72.4008 330.44 72.5893C311.327 79.3311 284.442 88.606 280.622 89.7358C280.511 89.7685 280.396 89.7851 280.281 89.7851C280.035 89.7862 279.796 89.7095 279.596 89.5661C279.397 89.4227 279.249 89.2198 279.172 88.9867C279.099 88.7748 278.933 88.3583 278.706 87.7867C278.684 87.7263 278.657 87.6635 278.631 87.6019C278.508 87.2877 278.366 86.9279 278.214 86.5312C277.67 85.1316 276.958 83.2465 276.198 80.9956C273.557 73.1757 272.43 64.7694 272.048 61.258C272.006 60.8884 271.975 60.5669 271.949 60.3094C271.943 60.2463 271.941 60.1829 271.942 60.1196C271.953 59.8153 272.057 59.5216 272.239 59.2779C272.422 59.0341 272.675 58.8519 272.963 58.7557ZM195.401 50.5182C201.461 47.2927 208.122 47.2077 210.701 47.3149C210.852 47.3216 210.993 47.3876 211.095 47.4985C211.196 47.6093 211.25 47.756 211.244 47.9062C211.242 47.9811 211.225 48.0548 211.194 48.123C211.163 48.1912 211.118 48.2524 211.063 48.3031C211.008 48.3537 210.943 48.3926 210.872 48.4176C210.802 48.4425 210.727 48.453 210.652 48.4483C208.16 48.3399 201.747 48.4212 195.934 51.5149C188.895 55.2604 188.172 60.6322 188.104 61.6769C188.094 61.8201 188.03 61.9541 187.925 62.052C187.821 62.1499 187.682 62.2043 187.539 62.2043H187.498C187.424 62.1991 187.351 62.1793 187.285 62.1462C187.218 62.113 187.159 62.067 187.11 62.0108C187.061 61.9546 187.024 61.8893 187 61.8187C186.976 61.7481 186.967 61.6736 186.972 61.5993C187.078 59.9952 188.018 54.4435 195.401 50.5182Z" fill="#1A1919"/>
<path d="M195.448 44.9296C202.932 42.1156 210.495 42.9214 213.402 43.3994C213.478 43.4089 213.551 43.4336 213.617 43.472C213.683 43.5105 213.741 43.5619 213.786 43.6231C213.832 43.6844 213.865 43.7543 213.883 43.8286C213.901 43.9028 213.904 43.98 213.892 44.0555C213.879 44.1309 213.852 44.2031 213.811 44.2676C213.77 44.3321 213.716 44.3877 213.653 44.431C213.59 44.4743 213.519 44.5045 213.444 44.5197C213.369 44.5348 213.292 44.5347 213.217 44.5193C210.403 44.0561 203.076 43.275 195.845 45.9916C187.065 49.2923 185.198 55.3232 184.913 56.4999C184.883 56.6234 184.812 56.7333 184.712 56.8119C184.612 56.8905 184.488 56.9333 184.361 56.9335C184.316 56.9337 184.271 56.9283 184.228 56.9175C184.155 56.9002 184.087 56.8687 184.027 56.8248C183.966 56.781 183.915 56.7256 183.876 56.662C183.837 56.5983 183.811 56.5276 183.8 56.4539C183.788 56.3802 183.791 56.305 183.809 56.2325C184.248 54.4435 186.369 48.3473 195.448 44.9296Z" fill="#1A1919"/>
</g>
</g>
</g>
<defs>
<clipPath id="clip0_46_1458">
<rect y="0.5" width="422" height="212" rx="12" fill="white"/>
</clipPath>
<clipPath id="clip1_46_1458">
<rect width="376.5" height="251" fill="white" transform="translate(7 -19)"/>
</clipPath>
</defs>
</svg>
