<svg width="24" height="24" viewBox="0 0 24 24" fill="none" xmlns="http://www.w3.org/2000/svg">
<g clip-path="url(#clip0_61_1183)">
<path fill-rule="evenodd" clip-rule="evenodd" d="M4.125 2.625H18V19.5H3.75V2.625H4.125ZM6.75 16.5H15V17.25H6.75V16.5ZM6.75 14.25H15V15H6.75V14.25ZM6.75 5.24999H15V6.00001H6.75V5.24999ZM7.67421 8.28357C8.02772 8.28357 8.34781 8.4269 8.57951 8.6586C8.81121 8.8903 8.95453 9.21039 8.95453 9.56389C8.95453 9.67212 8.94109 9.7772 8.91579 9.87758L9.8239 10.4331C9.86728 10.3709 9.91607 10.3126 9.9697 10.259C10.2014 10.0273 10.5215 9.88396 10.875 9.88396C11.1975 9.88396 11.4922 10.0033 11.7174 10.2002L12.9425 9.1999C12.8486 9.02181 12.7955 8.81892 12.7955 8.60366C12.7955 8.25015 12.9388 7.93007 13.1705 7.69836C13.4022 7.46665 13.7223 7.32334 14.0758 7.32334C14.4293 7.32334 14.7494 7.46665 14.9811 7.69836C15.2128 7.93006 15.3561 8.25015 15.3561 8.60366C15.3561 8.95718 15.2128 9.27725 14.9811 9.50897C14.7494 9.74066 14.4293 9.88399 14.0758 9.88399C13.8158 9.88399 13.5738 9.80644 13.3718 9.67322L12.0792 10.7286C12.1285 10.8646 12.1553 11.0113 12.1553 11.1643C12.1553 11.5178 12.012 11.8379 11.7803 12.0696C11.5486 12.3013 11.2285 12.4446 10.875 12.4446C10.5215 12.4446 10.2014 12.3013 9.9697 12.0696C9.73799 11.8379 9.59468 11.5178 9.59468 11.1643C9.59468 11.124 9.59655 11.0842 9.6002 11.0449L8.60911 10.4386C8.59942 10.4489 8.58956 10.4591 8.57951 10.4692C8.34781 10.7009 8.02772 10.8442 7.67421 10.8442C7.32069 10.8442 7.00062 10.7009 6.7689 10.4692C6.53719 10.2375 6.39388 9.91741 6.39388 9.56389C6.39388 9.21039 6.5372 8.8903 6.7689 8.6586C7.00062 8.42688 7.32069 8.28357 7.67421 8.28357Z" fill="#A3A3A3"/>
<path d="M6.667 19.8693V20.625H19.467V5.20726H18.364V4.45724H20.217V21.375H5.91699V19.8693H6.667Z" fill="#A3A3A3"/>
</g>
<defs>
<clipPath id="clip0_61_1183">
<rect width="24" height="24" fill="white"/>
</clipPath>
</defs>
</svg>
