<svg width="24" height="24" viewBox="0 0 24 24" fill="none" xmlns="http://www.w3.org/2000/svg">
<path fill-rule="evenodd" clip-rule="evenodd" d="M1.50488 19.5105V16.1243C1.50488 13.2038 3.84638 10.8526 6.75488 10.8526H11.2549C14.1634 10.8526 16.5049 13.2038 16.5049 16.1243V19.5105H1.50488Z" fill="#A3A3A3"/>
<path d="M8.98988 9.35257C11.0527 9.35257 12.7249 7.67364 12.7249 5.60257C12.7249 3.5315 11.0527 1.85257 8.98988 1.85257C6.9271 1.85257 5.25488 3.5315 5.25488 5.60257C5.25488 7.67364 6.9271 9.35257 8.98988 9.35257Z" fill="#A3A3A3"/>
<path d="M4.50488 16.119V19.5225M13.5049 16.119V19.5225" stroke="#1C1D22" stroke-opacity="0.5" stroke-linejoin="round"/>
<path d="M14.9442 13.1476V14.0633C14.5404 14.154 14.1547 14.3123 13.8035 14.5313L13.1592 13.8878L12.002 15.0443L12.6477 15.69C12.4277 16.0408 12.2685 16.4262 12.1767 16.83H11.2617V18.4658H12.1782C12.269 18.8696 12.4272 19.2553 12.6462 19.6065L12.002 20.2515L13.1592 21.408L13.8042 20.7623C14.155 20.9822 14.5404 21.1414 14.9442 21.2332V22.1483H16.5807V21.2318C16.9846 21.141 17.3702 20.9827 17.7215 20.7637L18.3657 21.408L19.5222 20.2508L18.8772 19.6058C19.0972 19.255 19.2564 18.8695 19.3482 18.4658H20.2625V16.8293H19.3475C19.2564 16.4256 19.0979 16.0402 18.8787 15.6892L19.5222 15.0443L18.3657 13.8878L17.72 14.5327C17.3692 14.3128 16.9837 14.1536 16.58 14.0618V13.1476H14.9442Z" fill="#F3F2F7"/>
<path d="M18.8398 6.19421V6.82428C18.5621 6.88666 18.2969 6.9954 18.0553 7.146L17.6128 6.70352L16.8178 7.49847L17.2611 7.9425C17.1099 8.18344 17.0003 8.44811 16.9371 8.72546H16.3086V9.85046H16.9386C17.001 10.1282 17.1097 10.3934 17.2603 10.635L16.8178 11.0775L17.6128 11.8725L18.0568 11.43C18.2978 11.581 18.5625 11.6903 18.8398 11.7533V12.3817H19.9648V11.7517C20.2425 11.6896 20.5077 11.5811 20.7493 11.4308L21.1918 11.8732L21.9868 11.0783L21.5443 10.6342C21.6954 10.393 21.8047 10.128 21.8676 9.85046H22.4961V8.72546H21.8661C21.804 8.44778 21.6954 8.18264 21.5451 7.94104L21.9876 7.49847L21.1926 6.70352L20.7486 7.14673C20.5074 6.99542 20.2425 6.88588 19.9648 6.82272V6.19421H18.8398Z" fill="#A3A3A3"/>
<path d="M19.4022 8.42847C19.1745 8.42926 18.9563 8.52014 18.7953 8.68115C18.6343 8.84217 18.5435 9.06025 18.5427 9.28796C18.5427 9.76046 18.9297 10.1476 19.4022 10.1476C19.6299 10.1468 19.8481 10.0559 20.0091 9.89487C20.1701 9.73385 20.2609 9.51567 20.2617 9.28796C20.2609 9.06025 20.1701 8.84217 20.0091 8.68115C19.8481 8.52014 19.6299 8.42926 19.4022 8.42847ZM15.7617 16.1476C14.9367 16.1476 14.2617 16.8226 14.2617 17.6476C14.2617 18.4718 14.9367 19.1476 15.7617 19.1476C16.586 19.1476 17.2617 18.4718 17.2617 17.6476C17.2617 16.8226 16.586 16.1476 15.7617 16.1476Z" fill="#A3A3A3" stroke="#1C1D22" stroke-opacity="0.5" stroke-linecap="round" stroke-linejoin="round"/>
</svg>
